<svg width="136" height="64" viewBox="0 0 136 64" fill="none" xmlns="http://www.w3.org/2000/svg">
  <!-- 
    Logo Concept A: 版木レイヤー重なり
    3つの時代の色が重なり合う版木のようなデザイン
    - Layer 1 (後ろ): 錦絵 藍 #1B3E5B
    - Layer 2 (中): 紅摺絵 紅 #C33433
    - Layer 3 (前): 墨摺絵 墨 #1a1a1a
    「浮」はSVGパス + 「世絵」はフォント
  -->
  
  <!-- 藍レイヤー (錦絵 - 最背面) -->
  <rect x="8" y="8" width="128" height="56" rx="2" fill="#1B3E5B" opacity="0.9"/>
  
  <!-- 紅レイヤー (紅摺絵 - 中間) -->
  <rect x="4" y="4" width="128" height="56" rx="2" fill="#C33433" opacity="0.85"/>
  
  <!-- 墨レイヤー (墨摺絵 - 最前面) -->
  <rect x="0" y="0" width="128" height="56" rx="2" fill="#1a1a1a"/>
  
  <!-- 「浮」の文字 (SVGパス) - スケール: 0.6, 中央配置 -->
  <g transform="translate(16, 16) scale(0.6)">
    <path d="M8.35663 38.3284C8.92881 38.3284 8.96968 37.6519 8.96968 37.2539C8.96968 36.657 8.88794 36.0601 8.80621 35.4632C8.47924 33.2347 8.27488 31.0062 8.27488 28.7379C8.27488 26.3104 8.47924 23.0472 9.29664 20.7391C9.58273 19.9433 9.95056 19.1872 9.95056 18.3515C9.95056 17.9137 9.70535 17.3964 9.2149 17.3964C8.43837 17.3964 7.53922 19.4657 7.33488 19.9831C6.4766 22.2116 6.27225 25.7931 6.27225 28.141C6.27225 29.7725 6.43574 38.3284 8.35663 38.3284ZM1.08174 36.4978C1.12261 37.055 1.16348 39.4824 2.14436 39.4824C3.00264 39.4824 3.04351 37.7713 3.04351 37.055C3.04351 36.9754 3.04351 36.9356 3.04351 36.8958C3.04351 34.1897 3.00264 31.4837 3.00264 28.8175C3.00264 26.1114 3.04351 23.4054 3.24785 20.7391C3.65656 14.4118 10.3184 17.1974 10.3184 7.92525C10.3184 6.73141 10.1549 1.00098 8.72446 1.00098C7.9888 1.00098 7.94793 2.19482 7.94793 2.67236C7.94793 4.46312 8.31576 6.25387 8.31576 8.08443C8.31576 16.4015 1.85827 12.4221 1.24522 20.7391C1.04087 23.684 1 26.6288 1 29.5736C1 31.8816 1.04087 34.1897 1.08174 36.4978ZM1.49044 13.9741C3.65656 13.9741 4.35135 8.80073 4.35135 7.20895C4.35135 6.17428 3.94265 1.79687 2.59394 1.79687C1.98088 1.79687 1.85827 2.67236 1.85827 3.1101C1.85827 4.5825 2.34871 6.01511 2.34871 7.5273C2.34871 8.48237 2.18523 10.3129 1.8174 11.1884C1.53131 11.8649 1 12.5415 1 13.3373C1 13.5761 1.08174 13.8149 1.28609 13.9343L1.49044 13.9741Z" fill="#F5F1E6"/>
    <path d="M25.1878 3.32991C28.7413 3.36 32.2948 3.48034 35.8174 3.72104C36.0955 3.72104 36.4044 3.75113 36.6825 3.75113C37.0225 3.75113 38.104 3.75113 38.104 3.17948C38.104 2.42731 36.3427 2.27687 35.8174 2.24679C32.6655 2.00609 29.4829 1.88574 26.3002 1.88574C23.0556 1.88574 19.8421 1.976 16.6285 2.15652C14.7127 2.27687 12.457 2.78835 12.457 5.07495C12.457 7.27128 13.5385 10.4906 14.9908 12.2056C15.3925 12.6569 16.2576 13.6798 16.9375 13.6798C17.1846 13.6798 17.3701 13.5294 17.3701 13.2887C17.3701 12.7471 16.6285 11.8144 16.2886 11.4233C15.2998 10.1897 14.6509 8.86588 14.3727 7.33146C14.2801 6.94033 14.2801 6.51911 14.2183 6.12798C14.1565 5.91738 14.0947 5.70677 14.0947 5.46607C14.0947 3.84139 16.5976 3.66086 17.8027 3.63078C18.019 6.24833 18.7606 8.83579 20.2437 11.0322C20.5219 11.4835 21.4179 12.8675 22.036 12.8675C22.3141 12.8675 22.4686 12.6268 22.4686 12.356C22.4686 11.7242 21.9124 10.8215 21.6034 10.31C20.2747 8.1438 19.5022 5.94746 19.255 3.45026C20.46 3.36 21.6652 3.32991 22.8703 3.32991H23.6119C23.6119 6.88015 24.0754 10.8516 28.1542 12.0551C29.6992 12.4763 31.3369 12.4763 32.9127 12.4763C33.9634 12.5064 35.0139 12.5666 36.0646 12.5666C36.4972 12.5666 37.9804 12.5666 37.9804 11.9047C37.9804 11.0021 34.4269 11.0021 33.6853 11.0021C33.129 11.0021 32.6038 11.0322 32.0476 11.0322C31.6459 11.0322 31.2441 11.0021 30.8425 10.972C26.4856 10.6711 25.1878 8.23406 25.1878 4.29269V3.32991Z" fill="#F5F1E6" stroke="#F5F1E6" stroke-width="0.51282"/>
    <path d="M15.8349 38.4042C17.5927 38.4042 19.0653 37.8323 20.605 37.1552C22.4832 36.3206 23.784 35.2144 24.6118 33.8173C25.4381 32.4225 25.7833 30.7545 25.7833 28.8134V28.5878L25.7682 28.2724C27.908 28.3261 30.0918 28.4824 32.2223 28.4824C33.3838 28.4823 34.1827 28.0587 34.6815 27.3583C35.171 26.6707 35.3535 25.7424 35.3535 24.7587C35.3535 24.5799 35.3533 24.1719 35.2703 23.8066C35.229 23.625 35.1638 23.4348 35.0525 23.2861C34.9361 23.1303 34.7629 23.0137 34.528 23.0136C34.3109 23.0136 34.1452 23.1091 34.0326 23.2636C33.9292 23.4056 33.8741 23.5916 33.839 23.7812C33.8033 23.9742 33.7842 24.1954 33.7688 24.4218C33.7531 24.6522 33.7408 24.8887 33.7186 25.1269C33.674 25.6068 33.5924 26.0494 33.3937 26.3691C33.2967 26.525 33.173 26.6492 33.0136 26.7353C32.8538 26.8216 32.6458 26.8759 32.3707 26.8759C30.156 26.8759 27.9841 26.7418 25.7581 26.6894V22.54C26.278 22.5232 26.7816 22.5204 27.2887 22.5204C28.0399 22.5205 28.7858 22.5498 29.5333 22.58C30.2793 22.6102 31.0273 22.6406 31.7759 22.6406C32.9128 22.6406 33.7095 22.223 34.2141 21.537C34.7106 20.8621 34.9071 19.9519 34.9071 18.9892C34.9071 17.9244 34.5321 17.1993 33.8792 16.7441C33.2406 16.299 32.3665 16.1349 31.4108 16.1103L31.4118 16.1093C30.1181 16.0609 28.7998 16.0615 27.5114 16.0615H22.305C21.0413 16.0615 19.7483 16.0609 18.4547 16.1093C17.4995 16.134 16.6319 16.2996 15.9994 16.7451C15.3524 17.2008 14.9844 17.9257 14.9844 18.9892C14.9845 19.9518 15.1802 20.8621 15.6764 21.537C16.1811 22.223 16.9787 22.6406 18.1156 22.6406C18.8642 22.6406 19.6182 22.6102 20.3703 22.58C21.124 22.5498 21.8767 22.5204 22.628 22.5204C23.1348 22.5204 23.638 22.5232 24.1574 22.54V26.6894C23.0916 26.7167 22.0205 26.7772 20.9551 26.8339C19.821 26.8943 18.6919 26.9482 17.5701 26.9482C17.2919 26.9482 17.0817 26.8935 16.9202 26.8066C16.759 26.7198 16.6347 26.5944 16.537 26.4374C16.3368 26.1155 16.2548 25.6697 16.2101 25.1865C16.1879 24.9469 16.1748 24.7102 16.1589 24.4785C16.1433 24.2504 16.1243 24.0275 16.0877 23.8329C16.0517 23.6419 15.9958 23.4543 15.8901 23.3115C15.7753 23.1565 15.6073 23.0615 15.3887 23.0615C15.1518 23.0615 14.9788 23.182 14.863 23.3398C14.7523 23.4908 14.6866 23.6836 14.6454 23.8681C14.5626 24.239 14.5632 24.6521 14.5632 24.831C14.5632 25.8032 14.7459 26.7257 15.2322 27.4101C15.7274 28.1067 16.5194 28.5312 17.6694 28.5312C18.7911 28.5312 19.9116 28.4763 21.0273 28.416C22.0742 28.3593 23.1162 28.2997 24.1574 28.2724V28.4033C24.1574 30.1091 23.8699 31.6301 23.1695 32.8886C22.4717 34.1427 21.3563 35.1505 19.6742 35.8222L19.6723 35.8232C18.6009 36.2599 17.5111 36.7058 16.3785 36.8466C16.2204 36.8596 15.8004 36.897 15.4148 36.9863C15.2194 37.0315 15.0175 37.0931 14.8601 37.1796C14.7127 37.2607 14.5381 37.4021 14.5381 37.6249C14.5382 37.6833 14.5536 37.7276 14.5642 37.7538C14.5667 37.9252 14.6466 38.059 14.7607 38.1533C14.87 38.2434 15.0085 38.2972 15.1368 38.331C15.3944 38.3987 15.6848 38.4042 15.8349 38.4042ZM24.983 21.1064C24.4207 21.1064 23.8572 21.0704 23.2829 21.0341C22.7106 20.998 22.1271 20.9619 21.5368 20.9619C20.9233 20.9619 20.3108 20.9923 19.7073 21.0224C19.1021 21.0526 18.5059 21.082 17.9171 21.082C17.6484 21.082 17.442 21.0098 17.2792 20.8945C17.1142 20.7774 16.9831 20.6079 16.8821 20.4003C16.6778 19.9806 16.6102 19.4352 16.6102 18.9648C16.6102 18.4557 16.772 18.16 17.0185 17.9775C17.2782 17.7852 17.6674 17.6914 18.1749 17.6679C19.5087 17.6198 20.8421 17.6201 22.2058 17.6201H27.6107C28.9989 17.6201 30.3582 17.6199 31.7168 17.6679L31.8953 17.6806C32.3019 17.7178 32.6236 17.8146 32.8491 17.9853C33.0951 18.1717 33.2563 18.469 33.2563 18.9648C33.2563 19.4244 33.1954 19.9703 32.9965 20.3935C32.898 20.603 32.7691 20.7741 32.6064 20.8925C32.4464 21.0088 32.2422 21.0819 31.9745 21.082C31.3732 21.082 30.7706 21.0526 30.1592 21.0224C29.5495 20.9923 28.9305 20.9619 28.3047 20.9619C27.739 20.9619 27.1743 20.998 26.6208 21.0341C26.0648 21.0704 25.5202 21.1064 24.983 21.1064Z" fill="#F5F1E6" stroke="#F5F1E6" stroke-width="0.410256"/>
  </g>
  
  <!-- 「世絵」の文字 (フォント) -->
  <text 
    x="40" 
    y="36" 
    font-family="'HOT-Tenshokk-M', serif" 
    font-size="24" 
    font-weight="400"
    fill="#F5F1E6"
  >世絵</text>
</svg>
