<svg width="37" height="39" viewBox="0 0 37 39" fill="none" xmlns="http://www.w3.org/2000/svg">
<path d="M7.16334 37.3287C7.72047 37.3287 7.76026 36.6522 7.76026 36.2542C7.76026 35.6573 7.68067 35.0604 7.60109 34.4635C7.28273 32.235 7.08375 30.0065 7.08375 27.7382C7.08375 25.3107 7.28273 22.0475 8.07862 19.7394C8.35718 18.9436 8.71533 18.1875 8.71533 17.3518C8.71533 16.914 8.47657 16.3967 7.99903 16.3967C7.24293 16.3967 6.36745 18.466 6.16848 18.9834C5.33279 21.2119 5.13382 24.7934 5.13382 27.1413C5.13382 28.7728 5.293 37.3287 7.16334 37.3287ZM0.0798996 35.4981C0.119694 36.0553 0.159489 38.4827 1.11456 38.4827C1.95025 38.4827 1.99004 36.7716 1.99004 36.0553C1.99004 35.9757 1.99004 35.9359 1.99004 35.8961C1.99004 33.19 1.95025 30.484 1.95025 27.8178C1.95025 25.1117 1.99004 22.4057 2.18901 19.7394C2.58696 13.4121 9.07349 16.1977 9.07349 6.92558C9.07349 5.73174 8.91431 0.00130986 7.5215 0.00130986C6.80519 0.00130986 6.7654 1.19515 6.7654 1.67269C6.7654 3.46345 7.12355 5.2542 7.12355 7.08476C7.12355 15.4018 0.835998 11.4224 0.239078 19.7394C0.0401049 22.6843 0.000310287 25.6291 0.000310287 28.5739C0.000310287 30.8819 0.0401049 33.19 0.0798996 35.4981ZM0.477846 12.9744C2.58696 12.9744 3.26347 7.80106 3.26347 6.20928C3.26347 5.17461 2.86552 0.797202 1.5523 0.797202C0.955381 0.797202 0.835998 1.67269 0.835998 2.11043C0.835998 3.58283 1.31353 5.01544 1.31353 6.52763C1.31353 7.4827 1.15435 9.31326 0.796203 10.1887C0.51764 10.8652 0.000310287 11.5418 0.000310287 12.3376C0.000310287 12.5764 0.0798996 12.8152 0.278873 12.9346L0.477846 12.9744Z" fill="#1e3a5f"/>
<path d="M23.5513 2.33005C27.0113 2.36014 30.4713 2.48048 33.9012 2.72118C34.172 2.72118 34.4728 2.75127 34.7436 2.75127C35.0746 2.75127 36.1276 2.75127 36.1276 2.17962C36.1276 1.42745 34.4127 1.27701 33.9012 1.24693C30.8323 1.00623 27.7334 0.885883 24.6345 0.885883C21.4753 0.885883 18.3463 0.976143 15.2173 1.15666C13.3519 1.27701 11.1556 1.78849 11.1556 4.07509C11.1556 6.27142 12.2086 9.49071 13.6227 11.2057C14.0138 11.657 14.8562 12.6799 15.5182 12.6799C15.7588 12.6799 15.9394 12.5295 15.9394 12.2888C15.9394 11.7472 15.2173 10.8145 14.8863 10.4234C13.9236 9.18984 13.2917 7.86602 13.0209 6.3316C12.9307 5.94047 12.9307 5.51925 12.8705 5.12812C12.8103 4.91752 12.7502 4.70691 12.7502 4.46621C12.7502 2.84153 15.1872 2.661 16.3606 2.63092C16.5712 5.24847 17.2933 7.83593 18.7374 10.0323C19.0082 10.4836 19.8807 11.8676 20.4825 11.8676C20.7533 11.8676 20.9037 11.6269 20.9037 11.3561C20.9037 10.7243 20.3621 9.82166 20.0613 9.31019C18.7675 7.14394 18.0154 4.9476 17.7747 2.4504C18.948 2.36014 20.1214 2.33005 21.2948 2.33005H22.0169C22.0169 5.88029 22.4682 9.85175 26.4397 11.0552C27.944 11.4764 29.5386 11.4764 31.073 11.4764C32.096 11.5065 33.1189 11.5667 34.1419 11.5667C34.5631 11.5667 36.0073 11.5667 36.0073 10.9048C36.0073 10.0022 32.5473 10.0022 31.8252 10.0022C31.2836 10.0022 30.7722 10.0323 30.2306 10.0323C29.8395 10.0323 29.4483 10.0022 29.0572 9.9721C24.815 9.67123 23.5513 7.2342 23.5513 3.29283V2.33005Z" fill="#1e3a5f" stroke="#1e3a5f" stroke-width="0.5"/>
<path d="M14.4443 37.4039C16.1558 37.4039 17.5897 36.832 19.0889 36.1549H19.0898C20.9185 35.3203 22.1842 34.2141 22.9902 32.817C23.7948 31.4222 24.1309 29.7542 24.1309 27.8131V27.5875L24.1162 27.2721C26.1997 27.3258 28.326 27.4821 30.4004 27.4821C31.5314 27.482 32.3093 27.0584 32.7949 26.358C33.2715 25.6704 33.4492 24.7421 33.4492 23.7584C33.4492 23.5796 33.449 23.1716 33.3682 22.8063C33.328 22.6247 33.2645 22.4345 33.1562 22.2858C33.0428 22.13 32.8742 22.0134 32.6455 22.0133C32.4341 22.0133 32.2727 22.1088 32.1631 22.2633C32.0624 22.4053 32.0088 22.5913 31.9746 22.7809C31.9398 22.9739 31.9212 23.1951 31.9062 23.4215C31.891 23.6519 31.879 23.8884 31.8574 24.1266C31.8139 24.6065 31.7345 25.0491 31.541 25.3688C31.4466 25.5247 31.3261 25.6489 31.1709 25.735C31.0153 25.8213 30.8128 25.8756 30.5449 25.8756C28.3885 25.8756 26.2738 25.7415 24.1064 25.6891V21.5397C24.6126 21.5229 25.1029 21.5201 25.5967 21.5201C26.3281 21.5202 27.0544 21.5495 27.7822 21.5797C28.5086 21.6099 29.2369 21.6403 29.9658 21.6403C31.0728 21.6403 31.8485 21.2227 32.3398 20.5367C32.8233 19.8618 33.0146 18.9516 33.0146 17.9889C33.0146 16.9241 32.6495 16.199 32.0137 15.7438C31.3919 15.2987 30.5408 15.1346 29.6103 15.11L29.6113 15.109C28.3516 15.0606 27.068 15.0612 25.8135 15.0612H20.7441C19.5137 15.0612 18.2547 15.0606 16.9951 15.109V15.11C16.0651 15.1347 15.2203 15.2993 14.6045 15.7448C13.9745 16.2005 13.6162 16.9254 13.6162 17.9889C13.6163 18.9515 13.8068 19.8618 14.29 20.5367C14.7814 21.2227 15.558 21.6403 16.665 21.6403C17.3939 21.6403 18.128 21.6099 18.8603 21.5797C19.5942 21.5495 20.3271 21.5201 21.0586 21.5201C21.5521 21.5201 22.042 21.5229 22.5478 21.5397V25.6891C21.51 25.7164 20.4671 25.7769 19.4297 25.8336C18.3255 25.894 17.2261 25.9479 16.1338 25.9479C15.8629 25.9479 15.6583 25.8932 15.501 25.8063C15.3441 25.7195 15.223 25.5941 15.1279 25.4371C14.933 25.1152 14.8531 24.6694 14.8096 24.1862C14.788 23.9466 14.7752 23.7099 14.7598 23.4782C14.7446 23.2501 14.7261 23.0272 14.6904 22.8326C14.6554 22.6416 14.601 22.454 14.498 22.3112C14.3863 22.1562 14.2227 22.0612 14.0098 22.0612C13.7792 22.0612 13.6107 22.1817 13.498 22.3395C13.3902 22.4905 13.3262 22.6833 13.2861 22.8678C13.2055 23.2387 13.2061 23.6518 13.2061 23.8307C13.2061 24.8029 13.3839 25.7254 13.8574 26.4098C14.3396 27.1064 15.1108 27.5309 16.2305 27.5309C17.3227 27.5309 18.4137 27.476 19.5 27.4157C20.5194 27.359 21.534 27.2994 22.5478 27.2721V27.403C22.5478 29.1088 22.2678 30.6298 21.5859 31.8883C20.9064 33.1424 19.8204 34.1502 18.1826 34.8219L18.1807 34.8229C17.1375 35.2596 16.0764 35.7055 14.9736 35.8463H14.9727C14.8187 35.8593 14.4107 35.8967 14.0352 35.986C13.845 36.0312 13.6484 36.0928 13.4951 36.1793C13.3516 36.2604 13.1816 36.4018 13.1816 36.6246C13.1817 36.683 13.1967 36.7273 13.207 36.7535C13.2095 36.9249 13.2873 37.0587 13.3984 37.153C13.5048 37.2431 13.6396 37.2969 13.7646 37.3307C14.0154 37.3984 14.2981 37.4039 14.4443 37.4039ZM23.3516 20.1061C22.8041 20.1061 22.2555 20.0701 21.6963 20.0338C21.139 19.9977 20.5709 19.9616 19.9961 19.9616C19.3988 19.9616 18.8024 19.992 18.2148 20.0221C17.6255 20.0523 17.045 20.0817 16.4717 20.0817C16.2101 20.0817 16.0091 20.0095 15.8506 19.8942C15.6899 19.7771 15.5623 19.6076 15.4639 19.4C15.265 18.9803 15.1992 18.4349 15.1992 17.9645C15.1992 17.4554 15.3567 17.1597 15.5967 16.9772C15.8496 16.7849 16.2286 16.6911 16.7227 16.6676H16.7217C18.0204 16.6195 19.3197 16.6198 20.6475 16.6198H25.9102C27.2619 16.6198 28.5854 16.6196 29.9082 16.6676L30.082 16.6803C30.4779 16.7175 30.7912 16.8143 31.0107 16.985C31.2503 17.1714 31.4072 17.4687 31.4072 17.9645C31.4072 18.4241 31.3479 18.97 31.1543 19.3932C31.0584 19.6027 30.9329 19.7738 30.7744 19.8922C30.6186 20.0085 30.4198 20.0816 30.1592 20.0817C29.5737 20.0817 28.9869 20.0523 28.3916 20.0221C27.798 19.992 27.1953 19.9616 26.5859 19.9616C26.0351 19.9616 25.4853 19.9977 24.9463 20.0338C24.405 20.0701 23.8747 20.1061 23.3516 20.1061Z" fill="#1e3a5f" stroke="#1e3a5f" stroke-width="0.4"/>
</svg>
