<svg preserveAspectRatio="none" width="100%" height="100%" overflow="visible" style="display: block;" viewBox="0 0 40.0055 3.21192" fill="none" xmlns="http://www.w3.org/2000/svg">
<path id="underline" d="M38.1367 0.541457C38.1837 0.526329 38.2452 0.627497 38.2983 0.635746C38.5273 0.671554 38.6072 0.743377 38.8118 0.791468C39.1189 0.868496 39.9909 0.749915 40.0055 1.42286C40.0055 1.42287 40.0055 1.42289 40.0055 1.42291C40.0055 1.42953 40.0054 1.43624 40.0052 1.44302C40.0018 1.57177 39.9224 1.71232 39.9105 1.85791C39.8983 2.00354 39.9076 2.94406 39.7907 2.99658C39.6198 3.06684 39.2118 2.81687 39.1238 2.82369C39.0607 2.82897 38.9828 2.91167 38.9032 2.92359C38.6475 2.96178 38.5194 2.89238 38.2791 3.11159C38.1966 2.98436 38.1138 2.85688 38.0299 2.72915C37.9112 2.7788 37.7413 2.60613 37.6714 2.61038C37.6138 2.61391 37.5703 2.70799 37.511 2.70849C37.4434 2.70953 37.3458 2.59816 37.2207 2.60512C37.0178 2.61616 36.9619 2.86513 36.8388 2.88831C36.7085 2.91206 36.5252 2.76081 36.3568 2.83706C36.3343 2.86321 36.3111 2.88929 36.2897 2.9155C36.2989 2.97919 36.3087 3.04293 36.3187 3.10668C36.2353 3.12963 36.2121 2.99876 36.137 2.99064C36.1092 2.9876 36.0845 2.9973 36.0618 3.01184C36.0149 3.04345 35.9772 3.09765 35.9371 3.09413C35.8896 3.08986 35.8285 2.98693 35.7678 2.98831C35.6772 2.98965 35.6856 3.13203 35.6346 3.15452C35.6125 3.1631 35.2474 3.21244 35.2266 3.21192C35.0739 3.20542 35.0728 3.01136 34.952 2.98485C34.6127 2.91178 34.2537 3.04041 33.9341 3.07512C33.7906 3.09061 33.6463 3.06837 33.5079 3.02693C33.767 2.55012 33.3047 2.12913 33.4298 2.91512C33.2846 2.79376 33.1559 2.99385 33.0118 2.94784C32.9188 2.91791 32.8607 2.806 32.7222 2.79884C32.4826 2.78723 32.1944 3.07307 32.1638 2.51795C31.8711 2.59511 31.6385 2.37901 31.5045 2.85822C31.4305 2.8831 31.2607 2.58125 31.1803 2.53658C31.107 2.49441 30.518 2.32614 30.4191 2.31305C30.3211 2.29974 30.1529 2.28172 30.0671 2.31947C29.9591 2.36608 29.8592 2.86613 29.7094 2.26605C29.4912 2.30148 29.4175 2.28045 29.2219 2.20102C29.1865 2.18666 29.1871 2.09889 29.1659 2.09766C29.1225 2.0953 29.0433 2.15591 28.9669 2.15975C28.8398 2.16593 28.7763 1.97791 28.7759 2.26004C28.6897 2.30283 28.6012 2.34557 28.5158 2.38851C28.4895 2.33271 28.463 2.27692 28.4364 2.22112C28.3888 2.27805 28.341 2.33499 28.2932 2.39194C28.3667 1.98732 28.0367 2.21194 28.1286 2.45072C27.9698 2.35847 27.8133 2.26655 27.6525 2.17463C27.6951 1.71262 27.2988 2.10488 27.319 2.35808C27.3004 2.35688 27.2817 2.35568 27.2631 2.35448C27.1035 2.22409 26.9522 2.31833 26.7562 2.22735C26.5598 2.13641 26.5801 2.09216 26.5288 1.87672C26.4819 1.88703 26.4348 1.89735 26.3876 1.90767C26.1194 2.4819 26.1996 1.4723 25.7635 1.90459C25.6409 1.53251 25.3044 1.71357 25.0791 1.81753C25.0529 1.8296 25.0501 1.90083 25.015 1.92166C24.9297 1.9717 24.7219 1.87336 24.7215 2.10342C24.6502 2.0346 24.5785 1.96581 24.5064 1.89705C24.4443 1.93698 24.3832 1.97697 24.3224 2.01699C24.3205 2.08875 24.3187 2.1605 24.3169 2.23226C24.2042 1.98415 24.0109 2.07269 23.9179 2.01163C23.8995 1.99926 23.8979 1.90016 23.8404 1.87157C23.7741 1.83768 23.6475 1.86361 23.5674 1.8306C23.5331 1.93943 23.4988 2.04826 23.4645 2.15711C23.3183 2.2129 23.2731 1.92223 23.1899 1.89772C23.1752 1.89341 22.8963 1.90769 22.8808 1.91358C22.7958 1.94508 22.7825 2.07009 22.6694 2.12724C22.6175 2.15394 22.5441 2.16587 22.4315 2.14675C22.3685 2.13589 22.319 2.04954 22.2616 2.04498C22.1594 2.03671 21.8521 2.22459 21.825 2.40302C21.707 2.17697 21.3752 2.26292 21.2808 2.1968C21.2519 2.17646 21.2477 2.03379 21.1584 2.00207C21.0862 1.9762 20.8961 2.08757 20.8041 2.06719C20.7069 2.04502 20.6736 1.92479 20.6298 1.91574C20.5885 1.90731 20.549 2.00348 20.4925 2.00219C20.3159 1.99653 20.1573 1.83899 20.0183 1.83455C19.817 1.82776 19.6341 2.11215 19.465 2.23763C19.4234 2.21866 19.3829 2.15683 19.339 2.15586C18.7947 2.14176 18.1835 2.08485 17.6376 2.021C17.385 1.9915 16.7558 1.60094 16.9221 2.24985C16.8339 2.36301 16.1949 2.10022 16.073 2.09626C15.9513 2.09222 15.8548 2.2084 15.7592 2.21006C15.4703 2.21499 15.2675 2.13123 14.9159 2.23283C14.8251 2.2594 14.7281 2.39727 14.6744 2.39575C14.6097 2.3936 14.5399 2.26051 14.4563 2.25221C14.2557 2.23345 13.8841 2.27826 13.6919 2.25587C13.6568 2.25149 13.6441 2.13456 13.5938 2.09818C13.3978 1.95601 13.1799 1.9693 13.22 2.34257C12.9691 2.13159 12.7378 2.32607 12.5074 2.33911C12.0168 2.36571 11.123 2.28452 10.6992 2.44488C10.4295 2.54601 10.4375 2.71339 10.0416 2.57225C9.95268 2.54096 9.86433 2.49851 9.75742 2.46123C9.50888 2.37348 9.27288 2.0663 9.08728 2.44099C8.81134 2.34699 8.58562 2.41791 8.37971 2.10121C8.35655 2.17794 8.3323 2.25468 8.30867 2.33141C8.27428 2.33367 8.23997 2.33593 8.20574 2.33819C8.19427 2.26538 8.18281 2.19256 8.17135 2.11974C7.92784 2.10273 7.61964 2.406 7.41461 2.4062C7.06692 2.40676 6.17406 2.30131 5.8457 2.2072C5.67008 2.1572 5.66118 2.31355 5.5574 1.99377C5.51874 2.01662 5.4803 2.03946 5.44208 2.06231C5.4189 2.13293 5.39581 2.20355 5.37282 2.27418C5.1442 2.28001 4.88318 2.17429 4.66668 2.17834C4.50885 2.18142 4.30169 2.21894 4.10614 2.25211C3.81972 2.29813 3.53379 2.33617 3.30557 2.26556C3.20375 2.23489 3.08881 2.09144 2.98723 2.09446C2.84446 2.09866 2.82243 2.33961 2.63964 2.3466C2.33338 2.35809 1.76714 2.08624 1.47514 2.11158C1.38882 2.11895 1.35348 2.20897 1.29188 2.21937C1.04367 2.26381 0.842847 2.25924 0.605201 2.40083C0.349336 2.17369 0.363568 1.87583 0.282287 1.57657C0.21918 1.35072 0.0265743 0.827971 0.00310376 0.629666C-0.0137869 0.490389 0.045001 0.310243 0.0186891 0.157033C0.322039 0.0304184 0.451886 0.163591 0.702904 0.376184C1.15939 0.361384 1.62397 0.346451 2.07753 0.331667C2.1202 0.414895 2.16534 0.498089 2.20809 0.581316C2.20809 0.581499 2.2081 0.581682 2.2081 0.581865C2.37993 0.676246 2.46 0.459319 2.54978 0.409103C2.93735 0.20216 3.49063 0.1475 4.07754 0.155515C4.84481 0.166248 5.68431 0.287336 6.25327 0.310362C6.46505 0.318881 7.16863 0.197432 7.31977 0.33184C7.35809 0.366842 7.37015 0.49593 7.41072 0.501084C7.77464 0.420022 8.13871 0.339152 8.50231 0.258506C9.25446 0.451431 10.0283 0.27848 10.7844 0.241754C12.8286 0.142322 14.8551 0.0330708 16.8695 0.0698068C17.2588 0.0770886 17.7534 -0.0175641 18.1343 0.0471729C18.293 0.0740168 18.3582 0.281929 18.5684 0.128737C18.5702 0.18466 18.572 0.240582 18.5738 0.296505C18.7568 0.230322 18.8732 0.103995 19.0787 0.0927909C19.2516 0.0834917 19.7064 0.0795877 19.8592 0.102692C19.938 0.114236 19.9075 0.218376 19.981 0.218665C20.1065 0.218359 20.378 0.0771583 20.5522 0.0794592C20.7096 0.0814861 20.9732 0.205564 21.0952 0.189984C21.5316 0.134636 22.0095 -0.0355058 22.4764 0.0219092C22.5545 0.0317555 22.645 0.0872083 22.7126 0.128383C22.7567 0.154785 22.7914 0.175316 22.8072 0.17419C22.8865 0.168071 22.913 0.037057 22.9664 0.0213496C23.2354 -0.0581046 23.6534 0.108815 23.9135 0.122235C24.7712 0.165899 25.6826 0.139254 26.5345 0.197957C27.0738 0.234474 27.9703 0.252118 28.4635 0.376448C28.5693 0.40318 28.5335 0.545713 28.6227 0.550259C28.7224 0.555324 28.7826 0.46095 28.8297 0.455516C29.152 0.41678 29.8757 0.358476 30.1734 0.476092C30.2306 0.498616 30.266 0.613873 30.3007 0.615531C30.3182 0.616578 30.3624 0.541999 30.4176 0.537432C30.9108 0.497384 31.263 0.564879 31.7377 0.622977C32.6504 0.733816 33.7169 0.668908 34.6713 0.821715C34.8774 0.85477 35.0047 1.08894 35.0335 1.08896C35.0978 1.08951 35.1499 0.94288 35.2844 0.916284C35.569 0.859948 35.9057 0.925404 36.2203 0.967117C36.3969 0.990376 36.5629 1.00605 36.7095 0.990147C36.9143 0.968313 37.2067 0.798334 37.4073 0.76999C37.5673 0.747566 37.9362 0.84694 38.0095 0.767438C38.0559 0.719665 38.0857 0.558701 38.1367 0.541457ZM32.5871 2.6634C32.6346 2.40625 32.3191 2.60039 32.422 2.7475C32.4454 2.78062 32.5752 2.73016 32.5871 2.6634ZM18.6151 1.69485C18.6173 1.76909 18.6195 1.84332 18.6217 1.91756C18.6612 1.88696 18.7007 1.85637 18.7403 1.82579C18.7185 1.781 18.6968 1.73622 18.675 1.69144C18.655 1.69258 18.635 1.69371 18.6151 1.69485Z" fill="var(--stroke-0, #334E6C)"/>
</svg>
