<svg width="400" height="250" viewBox="0 0 400 250" xmlns="http://www.w3.org/2000/svg">
  <title>江戸時代の指差し方向指示（右）</title>
  <desc>着物の袖口から右方向を指差す手の図案。筆で描いたような墨絵の質感。</desc>
  <path d="M389.3,53.2c-7.9-2.3-16.2-3.7-24.6-4.5c-11.3-1.1-22.7-1.5-34-1.2c-13.7,0.4-27.3,1.7-40.7,4.3
    c-6.2,1.2-12.3,2.7-18.3,4.7c-1.5,0.5-3,1-4.4,1.6c-4.5,1.9-8.7,4.3-12.6,7.2c-2.4,1.8-4.6,3.8-6.5,6.1c-1.7,2.1-3.2,4.3-4.4,6.7
    c-2.6,5.1-4.2,10.7-4.9,16.4c-0.5,3.7-0.6,7.5-0.3,11.2c0.3,3.5,1.1,6.9,2.3,10.2c1.4,3.7,3.5,7.1,6.1,10.1
    c4.6,5.4,10.8,9.5,17.6,12c6.2,2.3,12.8,3.3,19.4,3c3.2-0.2,6.3-0.7,9.3-1.6c1.8-0.6,3.6-1.3,5.3-2.1c2.6-1.2,5-2.8,7.2-4.6
    c3.2-2.7,5.9-5.9,8.2-9.4c1.6-2.4,2.9-5,4-7.6c0.8-2,1.5-4.1,2-6.2c0.4-1.7,0.7-3.5,0.9-5.2c0.1-0.8,0.1-1.6,0.1-2.4
    c0-0.6-0.1-1.2-0.2-1.8c-0.2-0.8-0.6-1.5-1.1-2.2c-1-1.3-2.5-2.1-4.1-2.5c-1.6-0.4-3.3-0.3-4.9,0.1c-1.8,0.5-3.4,1.4-4.9,2.6
    c-1.5,1.3-2.8,2.8-4,4.4c-2.6,3.6-4.6,7.6-6,11.8c-0.3,1-0.6,2-0.9,3c-0.5,2.1-1,4.2-1.4,6.4c-0.5,3-0.9,6.1-1.1,9.1
    c-0.2,3.5,0,7.1,0.6,10.6c0.5,2.7,1.4,5.3,2.7,7.7c1.6,2.8,3.8,5.2,6.4,7.1c4.7,3.5,10.6,5.4,16.5,5.4c3.5,0,7-0.6,10.3-1.9
    c2.8-1.1,5.4-2.6,7.7-4.6c2.5-2.1,4.6-4.7,6.3-7.5c2-3.3,3.4-7,4.3-10.8c0.6-2.6,1-5.3,1.2-8c0.1-1.6,0-3.1-0.2-4.7
    c-0.1-0.9-0.3-1.8-0.6-2.6c-0.4-1-1.1-1.9-2-2.5c-1.3-1-3-1.4-4.6-1.3c-1.5,0.1-3,0.6-4.3,1.5c-1.4,0.9-2.6,2.2-3.6,3.6
    c-2.6,3.7-4.6,7.9-5.9,12.3c-0.3,1.1-0.6,2.3-0.8,3.4c-0.4,2.3-0.8,4.7-1.1,7c-0.3,3.2-0.5,6.5-0.5,9.7c0,3.8,0.3,7.5,0.9,11.2
    c0.5,3,1.4,5.9,2.7,8.6c1.7,3.2,4,6,6.8,8.2c4.9,4,11.1,6.3,17.4,6.5c3.9,0.1,7.8-0.5,11.5-1.7c3.4-1.2,6.6-2.9,9.4-5.1
    c2.8-2.2,5.3-4.9,7.3-8c2.3-3.6,4.1-7.6,5.2-11.8c0.8-3,1.3-6.1,1.5-9.3c0.1-1.8,0-3.7-0.3-5.5c-0.2-1.1-0.4-2.2-0.8-3.2
    c-0.5-1.3-1.3-2.4-2.4-3.3c-1.6-1.3-3.6-1.9-5.6-1.8c-1.9,0.1-3.7,0.7-5.3,1.8c-1.5,1-3,2.4-4.1,4c-3.1,4.3-5.5,9.2-7.1,14.3
    c-0.4,1.3-0.8,2.6-1.1,4c-0.5,2.6-0.9,5.2-1.3,7.9c-0.3,3.6-0.4,7.2-0.4,10.8c0.1,4.3,0.5,8.5,1.4,12.7c0.6,3.3,1.7,6.5,3.1,9.5
    c2,4,4.6,7.7,7.8,10.7c5.5,5.2,12.6,8.4,19.9,9c4.6,0.4,9.2,0,13.7-1.1c4.3-1.1,8.4-2.8,12.2-5c4-2.3,7.7-5.1,11.1-8.3
    c4.8-4.6,8.9-9.9,12.3-15.7c3-5.1,5.4-10.6,7.2-16.3c1.4-4.5,2.4-9.2,2.9-14c0.3-2.7,0.5-5.5,0.4-8.2c0-1.7-0.2-3.3-0.5-5
    c-0.3-1.6-0.8-3.1-1.5-4.6c-1.5-2.9-3.8-5.3-6.6-7.1c-3.3-2.1-7.1-3.4-11-4c-6.2-0.9-12.4-0.6-18.5,0.8c-5.5,1.2-10.8,3.2-15.9,5.7
    c-2.6,1.3-5.1,2.8-7.5,4.3c-1.3,0.8-2.6,1.7-3.8,2.6c-2.6,1.9-5,4-7.3,6.3c-1.1,1.2-2.2,2.4-3.3,3.7c-0.5,0.6-1,1.2-1.5,1.9
    c-0.9,1.1-1.7,2.3-2.6,3.5c-0.8,1.2-1.6,2.4-2.3,3.7c-0.7,1.1-1.3,2.3-1.9,3.5c-1.1,2.1-2,4.3-2.8,6.6c-1,2.8-1.8,5.7-2.4,8.7
    c-0.6,3.1-1,6.3-1.3,9.5c-0.2,3.2-0.3,6.5-0.2,9.7c0.1,4.7,0.6,9.3,1.5,13.9c0.8,4.2,2.1,8.3,3.9,12.2c2.2,5,5.3,9.5,9,13.4
    c6.4,6.7,14.7,11.3,23.6,13.3c5.9,1.4,12,1.9,18.1,1.6c5.8-0.3,11.5-1.4,17-3.2c4.8-1.5,9.4-3.6,13.8-6.1c3.9-2.2,7.7-4.8,11.2-7.7
    c5.9-5,11.1-10.8,15.6-17.2c3.9-5.6,7.2-11.6,9.9-17.9c2.1-5,3.8-10.1,5-15.4c1-4.3,1.8-8.7,2.2-13.1c0.3-3.3,0.5-6.7,0.5-10
    c0-2.2-0.1-4.4-0.4-6.6c-0.2-1.7-0.5-3.3-0.9-5c-0.4-1.4-1-2.7-1.7-3.9c-1.3-2.1-3.1-3.9-5.3-5.2c-2.7-1.6-5.8-2.5-9-2.8
    c-4.7-0.5-9.5,0.1-14.1,1.6c-3.7,1.2-7.3,2.9-10.6,5c-1.6,1-3.2,2.1-4.7,3.2c-0.7,0.5-1.4,1.1-2.1,1.6c-0.7,0.5-1.3,1-1.9,1.6
    c-0.6,0.5-1.2,1-1.8,1.5c-0.5,0.5-1,1-1.5,1.5c-0.4,0.4-0.8,0.8-1.2,1.3c-0.3,0.3-0.6,0.7-0.9,1c-0.2,0.3-0.4,0.5-0.6,0.8
    c-0.1,0.2-0.2,0.3-0.3,0.5c0,0.1-0.1,0.1-0.1,0.2c0,0,0,0,0,0c0.3-0.4,0.6-0.9,0.9-1.3c0.3-0.4,0.6-0.8,0.9-1.2c0.5-0.7,1-1.4,1.5-2.1
    c1.1-1.5,2.3-3,3.6-4.4c1.4-1.6,2.9-3.1,4.5-4.5c3.5-3.2,7.5-6,11.8-8.4c3.5-2,7.2-3.7,11-5.1c3.3-1.2,6.7-2.2,10.1-3
    c3.6-0.8,7.3-1.4,11-1.7c4-0.3,8,0,11.9,0.7c3.4,0.6,6.7,1.6,9.8,3c2.9,1.3,5.5,3.1,7.8,5.4c2.2,2.1,4,4.7,5.3,7.5
    c1.3,2.9,2.1,6,2.4,9.2c0.3,3.5,0,7-0.7,10.4c-0.7,3.5-1.9,6.9-3.5,10.1c-1.7,3.3-3.9,6.4-6.5,9.2c-2.9,3.2-6.2,6-9.9,8.4
    c-4,2.7-8.4,4.9-13,6.7c-5.2,2-10.7,3.4-16.2,4.2c-6.2,0.9-12.5,1.1-18.8,0.6c-5.3-0.4-10.5-1.4-15.6-3c-4-1.3-7.9-3-11.6-5.1
    c-3.3-1.9-6.4-4.1-9.2-6.7c-2.5-2.3-4.7-4.9-6.6-7.8c-1.7-2.6-3.1-5.5-4.1-8.5c-0.9-2.8-1.5-5.7-1.8-8.6c-0.3-3.3-0.3-6.7,0-10
    c0.3-3,0.9-5.9,1.8-8.8c0.8-2.7,1.9-5.3,3.3-7.8c1.3-2.3,2.8-4.5,4.6-6.5c3.3-3.8,7.3-7,11.8-9.5c4-2.2,8.3-3.9,12.8-5.1
    c4.8-1.3,9.8-2.1,14.8-2.3c5.8-0.2,11.6,0.2,17.3,1.2c4.7,0.8,9.3,2.2,13.7,4c3.9,1.6,7.5,3.7,10.9,6.2c3.1,2.3,5.9,5.1,8.3,8.2
    c2.3,2.9,4.2,6.2,5.7,9.6c1.5,3.5,2.6,7.2,3.2,11c0.6,4.2,0.7,8.5,0.3,12.7c-0.3,3.8-1.1,7.6-2.3,11.2c-1.2,3.5-2.9,6.9-5,10
    c-2,3.1-4.5,5.9-7.3,8.5c-3.1,2.8-6.5,5.3-10.2,7.4c-4.2,2.4-8.7,4.4-13.4,5.9c-5.4,1.7-11,2.8-16.7,3.3c-6.4,0.6-12.8,0.5-19.2-0.3
    c-5.5-0.7-10.8-2-15.9-4c-4.2-1.6-8.2-3.7-11.9-6.2c-3.4-2.3-6.5-5-9.3-8c-2.5-2.7-4.7-5.7-6.5-9c-1.7-3.1-3-6.4-3.9-9.8
    c-0.8-3.3-1.3-6.7-1.4-10.1c-0.1-3.9,0.2-7.8,0.8-11.6c0.6-3.1,1.6-6.1,2.9-9c1.3-2.7,2.9-5.2,4.8-7.5c3.4-4.4,7.7-8.2,12.4-11.2
    c4.2-2.6,8.8-4.7,13.6-6.2c5.2-1.7,10.5-2.7,15.9-3.1c6.2-0.5,12.5-0.3,18.7,0.6c5.2,0.8,10.3,2.2,15.1,4.2c4.1,1.7,7.9,4,11.4,6.7
    c3.2,2.5,6.1,5.4,8.6,8.7c2.3,3,4.2,6.4,5.7,9.9c1.5,3.6,2.5,7.4,3,11.3c0.5,4.3,0.5,8.6,0,12.9c-0.4,3.9-1.2,7.7-2.5,11.4
    c-1.3,3.6-3.1,7-5.4,10.2c-2.2,3.1-4.8,5.9-7.8,8.4c-3.3,2.8-6.9,5.2-10.8,7.2c-4.5,2.3-9.2,4.1-14.2,5.4c-5.6,1.5-11.4,2.4-17.2,2.6
    c-6.6,0.3-13.2-0.1-19.7-1.3c-5.6-1-11-2.6-16.1-4.9c-4.4-2-8.4-4.5-12.1-7.4c-3.4-2.7-6.4-5.8-9-9.2c-2.4-3.2-4.4-6.7-5.9-10.4
    c-1.5-3.7-2.5-7.6-3-11.6c-0.4-4.1-0.3-8.3,0.2-12.4c0.5-3.3,1.4-6.5,2.7-9.5c1.3-2.8,3-5.4,5-7.8c3.5-4.4,7.8-8.1,12.6-11
    c4.3-2.5,9-4.5,13.8-5.9c5.4-1.5,10.9-2.3,16.5-2.5c6.4-0.2,12.8,0.3,19.1,1.5c5.4,1,10.5,2.7,15.3,5c4.2,2,8,4.5,11.5,7.5
    c3.1,2.8,5.8,6,8.1,9.5c2.1,3.4,3.8,7,5.1,10.9c1.2,3.9,1.9,8,2.1,12c0.2,4.4-0.2,8.8-1,13.1c-0.8,4-2.1,7.8-3.8,11.4
    c-1.8,3.6-4.1,6.9-6.7,10c-2.9,3.2-6.1,6.1-9.7,8.5c-4,2.7-8.4,5-13,6.7c-5.4,2-11,3.4-16.7,4.1c-6.6,0.7-13.2,0.7-19.8-0.1
    c-5.8-0.7-11.5-2-16.9-4.1c-4.6-1.8-9-4.1-12.9-6.9c-3.7-2.6-7-5.6-9.9-9c-2.7-3.3-5-6.9-6.7-10.8c-1.7-3.9-3-8-3.8-12.2
    c-0.6-4.5-0.8-9.1-0.5-13.7c0.3-3.5,1-7,2-10.3c1.1-2.9,2.5-5.7,4.2-8.3c2.9-4.5,6.6-8.5,10.8-11.8c4-3,8.4-5.5,13.1-7.4
    c5.3-2.2,10.9-3.7,16.6-4.5c6.7-0.9,13.4-1,20.1-0.4c5.8,0.5,11.5,1.8,16.9,3.7c4.7,1.7,9.1,3.9,13.2,6.6c3.7,2.5,7.1,5.4,10.1,8.7
    c2.8,3.2,5.2,6.7,7.2,10.4c1.9,3.8,3.3,7.8,4.2,11.9c0.8,4.4,1,8.9,0.7,13.4c-0.3,4.2-1.1,8.4-2.5,12.4c-1.4,3.8-3.4,7.4-5.8,10.8
    c-2.6,3.6-5.7,6.8-9.1,9.5c-3.9,3.1-8.3,5.7-13,7.8c-5.3,2.3-10.9,4-16.7,5c-6.7,1.1-13.6,1.4-20.4,0.9c-6-0.4-12-1.7-17.7-3.6
    c-5-1.6-9.7-3.9-14.1-6.7c-3.9-2.6-7.5-5.6-10.7-9.1c-3-3.4-5.6-7.2-7.7-11.3c-2-4.2-3.5-8.7-4.5-13.3c-0.8-5-1-10.1-0.6-15.1
    c0.3-4,1-7.9,2.1-11.8c1.3-3.3,3-6.5,5.1-9.5c3.3-5,7.5-9.4,12.2-13c4.6-3.5,9.7-6.4,15.2-8.5c6-2.4,12.4-4.1,18.8-4.9
    c7.3-1,14.7-1.2,22-0.5c6.4,0.6,12.7,2,18.7,4.2c5.2,1.9,10.2,4.4,14.7,7.5c4.1,2.9,7.8,6.2,11.1,9.9c3.1,3.6,5.8,7.6,7.9,11.8
    c2.1,4.4,3.6,9,4.5,13.8c0.8,5.2,0.9,10.5,0.5,15.7c-0.4,4.4-1.4,8.7-2.9,12.9c-1.6,3.9-3.8,7.7-6.5,11.1c-3,3.6-6.4,6.9-10.2,9.6
    c-4.3,3.1-9.1,5.7-14.2,7.7c-5.8,2.3-11.9,3.9-18.2,4.8c-7.2,1-14.5,1.2-21.8,0.6c-6.4-0.5-12.7-1.9-18.7-3.9c-5.3-1.8-10.4-4.2-15.1-7.3
    c-4.2-2.8-8-6.1-11.5-9.8c-3.2-3.5-6.1-7.4-8.4-11.6c-2.3-4.5-3.9-9.3-5-14.3c-0.9-5.4-1.2-10.9-0.7-16.3c0.3-4.2,1.1-8.4,2.4-12.4
    c1.4-3.5,3.3-6.8,5.5-9.9c3.6-5.1,8.1-9.6,13.1-13.3c5-3.6,10.5-6.5,16.3-8.6c6.3-2.3,13-3.9,19.7-4.6c7.8-0.9,15.7-0.9,23.4,0
    c6.8,0.7,13.5,2.2,19.9,4.5c5.6,2,10.9,4.8,15.7,8.2c4.5,3.1,8.5,6.8,12,10.9c3.3,4,6.2,8.4,8.5,13.1c2.3,4.9,3.9,10,4.9,15.3
    c0.8,5.8,0.9,11.7,0.3,17.5c-0.5,4.8-1.6,9.6-3.3,14.2c-1.8,4.4-4.3,8.5-7.3,12.3c-3.4,4.1-7.3,7.8-11.6,10.8c-4.9,3.5-10.3,6.4-16.1,8.5
    c-6.5,2.4-13.3,4.1-20.3,4.9c-7.9,1-15.9,1-23.8,0c-7.1-0.8-14.1-2.4-20.8-4.7c-5.9-2-11.5-4.7-16.7-8.1c-4.7-3-9-6.7-12.8-10.8
    c-3.7-3.9-6.9-8.3-9.6-13c-2.6-5-4.5-10.4-5.7-15.9c-1-5.9-1.2-11.9-0.6-17.9c0.4-4.5,1.4-9,2.8-13.3c1.7-3.8,3.9-7.4,6.5-10.7
    c4-5.3,9-9.9,14.6-13.6c5.6-3.7,11.7-6.7,18.2-8.7c7.1-2.2,14.5-3.6,22-4.2c8.7-0.7,17.5-0.5,26.1,0.6c7.5,1,15,2.7,22,5.2
    c6.2,2.3,12.1,5.3,17.5,9.1c5,3.5,9.5,7.6,13.3,12.3c3.7,4.5,6.8,9.5,9.4,14.8c2.5,5.5,4.2,11.3,5.2,17.2c0.8,6.5,0.8,13.1,0,19.6
    c-0.6,5.4-1.9,10.7-3.9,15.7c-2.1,4.9-4.9,9.4-8.3,13.5c-3.9,4.6-8.4,8.7-13.3,12.1c-5.5,3.8-11.5,7-17.8,9.3c-7.2,2.6-14.7,4.3-22.3,5
    c-8.8,0.8-17.6,0.6-26.3-0.5c-7.8-1.1-15.4-3-22.6-5.8c-6.4-2.5-12.5-5.7-18.1-9.6c-5.2-3.5-9.8-7.8-13.9-12.5c-4.1-4.5-7.5-9.6-10.3-15
    c-2.8-5.6-4.7-11.6-5.9-17.7c-1-6.6-1.1-13.2-0.3-19.8c0.5-4.9,1.7-9.7,3.4-14.3c2-4.3,4.6-8.3,7.6-12c4.6-5.6,10.2-10.4,16.5-14.1
    c6.4-3.8,13.3-6.8,20.6-8.7c8-2,16.3-3,24.6-3.1c8.7-0.1,17.4,0.8,25.8,2.5c6.8,1.4,13.5,3.6,19.7,6.5c5.5,2.6,10.7,5.8,15.3,9.6
    c4.4,3.7,8.2,7.9,11.5,12.6c3.2,4.8,5.7,10,7.7,15.4c2,5.5,3.3,11.3,4,17.1c0.5,6.2,0.3,12.4-0.6,18.6c-0.8,5-2.3,10-4.3,14.6
    c-2.3,4.6-5.2,8.9-8.6,12.8c-4,4.4-8.6,8.4-13.8,11.7c-5.7,3.6-11.9,6.6-18.4,8.8c-7.3,2.4-14.9,4.1-22.7,4.9c-8.9,0.9-17.9,0.8-26.7-0.1
    c-8-0.8-15.9-2.5-23.5-5c-6.8-2.2-13.3-5.1-19.3-8.7c-5.4-3.2-10.4-7.1-14.8-11.6c-4.2-4.3-7.9-9.1-11-14.3c-2.9-5.2-5-10.8-6.4-16.6
    c-1.2-6.1-1.5-12.4-0.9-18.5c0.4-5.1,1.5-10.2,3.3-15c2.1-4.7,4.9-9,8.2-12.9c5-5.8,11-10.8,17.7-14.8c6.8-4,14.2-7,22-8.9
    c8.5-2.1,17.2-3,25.9-2.9c9.4,0.1,18.7,1.2,27.8,3.4c7.3,1.8,14.4,4.4,21.1,7.7c5.9,3,11.3,6.5,16.2,10.6c4.6,3.9,8.7,8.5,12.1,13.4
    c3.3,5,6,10.3,8.1,16c2.1,5.8,3.4,11.8,4,17.9c0.5,6.5,0.1,13-1.2,19.3c-1.1,5.2-2.8,10.3-5.1,15.1c-2.5,4.9-5.7,9.5-9.4,13.6
    c-4.2,4.7-9.1,8.9-14.5,12.5c-6,4-12.6,7.3-19.4,9.7c-7.8,2.7-15.9,4.5-24.2,5.3c-9.4,0.9-18.9,0.8-28.3-0.2c-8.3-0.9-16.5-2.8-24.4-5.6
    c-7-2.5-13.8-5.6-20-9.6c-5.6-3.6-10.7-7.8-15.3-12.6c-4.3-4.5-8.1-9.6-11.2-15c-3-5.2-5.2-10.9-6.6-16.7c-1.2-6.1-1.5-12.4-0.9-18.6
    c0.5-5.1,1.7-10.1,3.6-14.9c2.3-4.8,5.3-9.2,8.9-13.2c5.4-5.9,11.9-11,19-15.1c7.3-4.1,15.2-7.1,23.5-9.1c8.9-2.1,18.2-3.1,27.4-3
    c9.8,0.2,19.5,1.5,28.8,3.9c7.6,2,15.1,4.9,22,8.6c6.2,3.3,11.9,7.2,17,11.7c4.7,4.2,9,9,12.6,14.2c3.4,5.1,6.2,10.7,8.3,16.5
    c2.1,6,3.3,12.3,3.9,18.6c0.4,6.7-0.1,13.4-1.6,19.9c-1.3,5.4-3.4,10.6-6,15.5c-2.8,5.2-6.2,9.9-10.2,14.2c-4.4,4.8-9.5,9.1-15.1,12.8
    c-6.3,4.1-13.1,7.5-20.3,9.9c-8.2,2.8-16.6,4.7-25.3,5.6c-9.6,0.9-19.4,0.8-29-0.2c-8.6-0.9-17.1-3-25.2-5.9c-7.2-2.7-14.1-6-20.6-10.1
    c-5.7-3.8-11-8.2-15.6-13.2c-4.4-4.7-8.3-10-11.5-15.5c-3-5.4-5.3-11.2-6.7-17.3c-1.2-6.4-1.4-12.9-0.7-19.3c0.6-5.3,1.9-10.5,3.9-15.4
    c2.5-5,5.8-9.6,9.6-13.7c5.7-6.1,12.5-11.4,19.9-15.6c7.6-4.3,15.8-7.4,24.3-9.4c9.2-2.2,18.7-3.2,28.3-3.1c10.1,0.2,20.1,1.6,29.8,4.1
    c7.9,2,15.5,5,22.7,8.9c6.4,3.4,12.3,7.4,17.6,12c4.8,4.3,9.2,9.3,12.9,14.7c3.5,5.2,6.3,10.9,8.5,16.9c2,6.1,3.3,12.5,3.7,19.1
    c0.4,6.9-0.3,13.7-2,20.3c-1.5,5.5-3.8,10.8-6.7,15.8c-3.1,5.3-6.8,10.1-11.2,14.5c-4.7,4.9-10,9.3-15.9,13c-6.5,4.2-13.5,7.7-20.9,10.2
    c-8.5,2.9-17.2,4.8-26.1,5.7c-9.8,1-19.8,0.8-29.6-0.3c-8.8-1-17.4-3.1-25.7-6.3c-7.4-2.8-14.4-6.3-21-10.5c-5.8-3.9-11.2-8.5-15.9-13.6
    c-4.5-4.9-8.4-10.3-11.7-16c-3.1-5.5-5.4-11.5-6.7-17.7c-1.2-6.6-1.4-13.3-0.6-19.9c0.7-5.5,2.1-10.7,4.2-15.7c2.6-5.1,6-9.8,9.9-14
    c5.9-6.2,12.9-11.7,20.5-15.9c7.9-4.4,16.4-7.5,25.2-9.6c9.6-2.2,19.4-3.3,29.3-3.1c10.3,0.2,20.5,1.7,30.4,4.3c8.1,2.1,15.9,5.2,23.2,9.2
    c6.6,3.6,12.6,7.7,18.1,12.4c4.9,4.4,9.4,9.6,13.2,15.1c3.5,5.3,6.4,11.2,8.6,17.3c2.1,6.3,3.2,12.8,3.6,19.5c0.4,7-0.5,13.9-2.3,20.6
    c-1.7,5.6-4.2,11-7.3,16c-3.3,5.3-7.2,10.3-11.8,14.7c-4.9,4.9-10.4,9.4-16.4,13.2c-6.8,4.2-14,7.8-21.6,10.3c-8.7,2.9-17.7,4.9-26.9,5.8
    c-10,1-20.2,0.8-30.2-0.3c-9-1-17.8-3.2-26.2-6.6c-7.5-2.9-14.7-6.6-21.3-10.9c-5.9-4-11.4-8.8-16.1-14c-4.6-5-8.6-10.6-11.8-16.4
    c-3.1-5.7-5.4-11.8-6.7-18.2c-1.2-6.7-1.3-13.5-0.4-20.2c0.8-5.6,2.3-10.9,4.5-15.9c2.8-5.2,6.4-10,10.4-14.3c6.1-6.3,13.3-11.9,21-16.2
    c8.1-4.5,16.8-7.7,25.9-9.7c9.9-2.3,19.9-3.3,30-3c10.4,0.3,20.8,1.8,30.8,4.6c8.2,2.2,16.2,5.4,23.5,9.5c6.8,3.7,12.9,8,18.4,12.7
    c5,4.6,9.5,9.8,13.5,15.5c3.6,5.4,6.5,11.5,8.7,17.7c2.1,6.4,3.2,13.2,3.5,20c0.3,7.1-0.7,14.1-2.6,20.9c-1.8,5.7-4.4,11.1-7.8,16.1
    c-3.5,5.3-7.7,10.3-12.4,14.7c-5.1,4.9-10.8,9.3-16.9,13.2c-6.9,4.2-14.4,7.7-22.1,10.2c-8.9,2.8-18.2,4.8-27.6,5.6
    c-10.2,0.9-20.5,0.7-30.6-0.4c-9.1-1.1-18-3.4-26.4-6.8c-7.6-3-14.8-6.9-21.5-11.3c-6-4.1-11.4-9-16.2-14.3c-4.6-5.1-8.6-10.8-11.9-16.7
    c-3.1-5.8-5.4-12-6.7-18.5c-1.2-6.8-1.2-13.8-0.3-20.6c0.8-5.6,2.4-11,4.7-16.1c2.9-5.2,6.6-10.1,10.8-14.5c6.3-6.4,13.7-12,21.6-16.3
    c8.3-4.5,17.3-7.7,26.6-9.8c10.1-2.2,20.4-3.3,30.7-2.9c10.5,0.3,21,1.9,31,4.7c8.3,2.3,16.3,5.6,23.8,9.8c6.9,3.8,13.1,8.2,18.7,13
    c5.1,4.7,9.7,10,13.7,15.8c3.6,5.5,6.5,11.7,8.7,18c2.1,6.5,3.1,13.4,3.3,20.3c0.3,7.2-0.9,14.3-2.9,21.1c-1.9,5.7-4.6,11.2-8.1,16.3
    c-3.6,5.3-7.9,10.3-12.8,14.8c-5.2,4.8-11,9.3-17.3,13.1c-7,4.2-14.7,7.7-22.5,10.2c-9,2.8-18.5,4.7-28,5.5c-10.3,0.9-20.7,0.6-31-0.5
    c-9.2-1.1-18.1-3.5-26.6-7c-7.6-3.1-14.8-7-21.5-11.5c-6-4.2-11.5-9.2-16.3-14.6c-4.6-5.1-8.6-10.9-11.8-17c-3.1-5.9-5.4-12.2-6.5-18.8
    c-1.1-6.9-1-13.9-0.1-20.8c0.9-5.7,2.5-11.1,4.9-16.2c3-5.3,6.9-10.2,11.2-14.6c6.4-6.4,13.9-12,22-16.3c8.5-4.5,17.6-7.7,27-9.7
    c10.2-2.2,20.7-3.1,31.1-2.8c10.6,0.4,21.1,2,31.3,4.9c8.3,2.4,16.4,5.7,23.9,10c6.9,3.9,13.2,8.3,18.8,13.3c5.1,4.8,9.7,10.2,13.7,16
    c3.6,5.5,6.5,11.8,8.7,18.2c2.1,6.6,3,13.6,3.2,20.5c0.2,7.2-1,14.3-3.1,21.2c-2,5.7-4.8,11.2-8.3,16.3c-3.7,5.3-8.1,10.4-13.1,14.8
    c-5.3,4.8-11.2,9.2-17.5,13.1c-7.1,4.1-14.9,7.6-22.8,10c-9.1,2.8-18.7,4.6-28.4,5.3c-10.3,0.8-20.8,0.5-31.2-0.7c-9.2-1.2-18.2-3.6-26.7-7.2
    c-7.6-3.2-14.9-7.2-21.6-11.8c-5.9-4.3-11.4-9.4-16.2-14.9c-4.6-5.2-8.5-11.1-11.7-17.3c-3-6-5.3-12.4-6.4-19.1c-1-7-0.8-14,0.1-20.9
    c1-5.7,2.7-11.2,5.1-16.3c3.1-5.3,7.1-10.3,11.5-14.7c6.6-6.3,14.2-12,22.4-16.3c8.6-4.4,17.9-7.6,27.3-9.6c10.4-2.1,20.9-3,31.4-2.5
    c10.6,0.4,21.2,2.1,31.4,5.1c8.4,2.4,16.4,5.9,24,10.2c6.9,4,13.2,8.6,18.9,13.6c5.1,4.8,9.7,10.3,13.7,16.3c3.6,5.6,6.5,11.9,8.6,18.4
    c2,6.7,2.9,13.8,3,20.8c0.1,7.2-1.2,14.4-3.3,21.3c-2,5.8-4.9,11.3-8.6,16.5c-3.8,5.3-8.3,10.4-13.4,14.9c-5.4,4.7-11.4,9.1-17.8,12.9
    c-7.2,4.1-15.1,7.5-23.1,9.9c-9.2,2.7-18.9,4.4-28.6,5.1c-10.4,0.7-21,0.3-31.4-0.9c-9.2-1.3-18.2-3.8-26.7-7.5c-7.6-3.3-14.8-7.4-21.5-12.1
    c-5.9-4.4-11.3-9.6-16-15.2c-4.5-5.3-8.3-11.3-11.4-17.6c-3-6.1-5.2-12.6-6.2-19.3c-1-7-0.6-14.2,0.4-21.1c1.1-5.7,2.9-11.2,5.4-16.3
    c3.2-5.3,7.3-10.3,11.9-14.7c6.7-6.2,14.5-11.8,22.8-16.1c8.8-4.4,18.1-7.5,27.7-9.4c10.5-2,21.2-2.8,31.7-2.2c10.6,0.6,21.2,2.3,31.5,5.4
    c8.4,2.5,16.4,6,23.9,10.5c6.9,4.2,13.2,8.8,18.9,13.9c5,5,9.6,10.5,13.6,16.5c3.5,5.7,6.3,12.1,8.4,18.7c1.9,6.7,2.7,13.9,2.8,21
    c0,7.3-1.4,14.4-3.6,21.3c-2.2,5.8-5.1,11.3-8.9,16.5c-3.9,5.3-8.5,10.4-13.6,14.9c-5.5,4.6-11.6,9-18,12.8c-7.3,4-15.3,7.4-23.4,9.7
    c-9.3,2.6-19.1,4.2-28.9,4.8c-10.4,0.5-21,0-31.6-1.3c-9.2-1.4-18.1-4-26.5-7.8c-7.5-3.4-14.7-7.7-21.3-12.5c-5.8-4.5-11.1-9.8-15.7-15.6
    c-4.4-5.4-8.1-11.5-11.1-17.9c-2.9-6.3-5-12.8-5.9-19.6c-0.8-7.1-0.4-14.2,0.8-21.2c1.2-5.7,3.1-11.2,5.7-16.3c3.3-5.3,7.5-10.3,12.2-14.6
    c6.9-6.1,14.8-11.7,23.2-15.8c8.9-4.3,18.4-7.3,28.1-9.1c10.6-1.9,21.4-2.6,32.1-1.9c10.6,0.7,21.2,2.5,31.5,5.7c8.3,2.7,16.3,6.3,23.8,10.8
    c6.8,4.3,13,9.1,18.7,14.3c5,5.1,9.5,10.8,13.4,16.9c3.4,5.9,6.1,12.3,8.1,19c1.8,6.8,2.4,14.1,2.4,21.3c-0.1,7.3-1.7,14.4-4,21.3
    c-2.3,5.8-5.3,11.3-9.2,16.5c-4.1,5.2-8.7,10.3-13.9,14.8c-5.6,4.5-11.8,8.9-18.3,12.5c-7.4,4-15.6,7.2-23.8,9.4c-9.5,2.5-19.3,4-29.2,4.5
    c-10.5,0.4-21.1-0.3-31.7-1.7c-9.2-1.5-18.1-4.2-26.4-8.2c-7.4-3.6-14.4-8-21-12.9c-5.7-4.7-10.9-10.1-15.4-16c-4.3-5.6-7.8-11.8-10.7-18.3
    c-2.7-6.4-4.7-13.1-5.5-20c-0.7-7.1-0.1-14.3,1.2-21.2c1.4-5.6,3.3-11,6.1-16.2c3.4-5.2,7.8-10.2,12.6-14.5c7.1-5.9,15.2-11.3,23.7-15.3
    c9.2-4.2,18.8-7,28.6-8.7c10.7-1.7,21.7-2.3,32.5-1.4c10.7,0.9,21.3,2.9,31.6,6.2c8.3,2.8,16.2,6.6,23.6,11.3c6.7,4.4,12.8,9.5,18.4,14.9
    c4.8,5.3,9.2,11.2,12.9,17.4c3.3,6.1,5.8,12.6,7.7,19.4c1.7,6.9,2.1,14.2,2,21.5c-0.2,7.4-2,14.4-4.4,21.3c-2.4,5.8-5.6,11.2-9.7,16.4
    c-4.2,5.2-9.1,10.2-14.3,14.7c-5.8,4.4-12.1,8.7-18.8,12.2c-7.6,3.8-15.9,7-24.3,9c-9.6,2.3-19.6,3.7-29.6,4.1c-10.7,0.2-21.4-0.7-32-2.3
    c-9.2-1.7-18.1-4.5-26.3-8.7c-7.3-3.8-14.1-8.4-20.6-13.5c-5.6-4.9-10.6-10.5-15-16.5c-4.1-5.8-7.4-12.1-10.2-18.7
    c-2.5-6.6-4.3-13.4-5.1-20.4c-0.5-7.2,0.2-14.4,1.7-21.3c1.5-5.6,3.6-11,6.6-16c3.6-5.1,8.1-10,13.1-14.3c7.3-5.7,15.7-11,24.3-14.8
    c9.3-4,19.2-6.6,29.2-8.2c10.9-1.5,22-1.9,33-0.8c10.7,1.2,21.4,3.3,31.6,6.9c8.3,3,16,7.1,23.3,11.9c6.5,4.7,12.5,10,17.9,15.6
    c4.7,5.5,8.9,11.6,12.4,18.1c3.1,6.3,5.4,13,7.1,19.9c1.5,7.1,1.8,14.5,1.5,21.9c-0.5,7.4-2.5,14.5-5,21.3c-2.6,5.7-6,11.1-10.1,16.2
    c-4.5,5.1-9.4,10-14.8,14.4c-6,4.3-12.5,8.4-19.3,11.7c-7.8,3.7-16.2,6.7-24.8,8.6c-9.9,2.1-20,3.3-30.2,3.5c-10.8,0-21.6-1.2-32.3-3.1
    c-9.2-1.9-18-4.9-26.1-9.3c-7.2-4.1-13.9-8.9-20-14.2c-5.3-5.2-10.2-11-14.3-17.2c-3.9-6-7-12.5-9.5-19.3c-2.3-6.8-3.9-13.8-4.5-21
    c-0.3-7.3,0.6-14.6,2.2-21.5c1.7-5.5,4-10.7,7.1-15.7c3.8-4.9,8.4-9.7,13.7-13.9c7.6-5.5,16.2-10.5,25.1-14.1c9.5-3.8,19.5-6.2,29.7-7.6
    c11.1-1.3,22.4-1.5,33.6-0.2c10.7,1.5,21.3,3.9,31.5,7.7c8.1,3.3,15.8,7.6,22.8,12.6c6.3,4.9,12.1,10.5,17.3,16.5c4.4,5.8,8.4,12.2,11.7,18.9
    c2.8,6.6,5,13.5,6.5,20.5c1.3,7.3,1.4,14.8,0.9,22.3c-0.7,7.5-2.9,14.6-5.6,21.3c-2.8,5.6-6.4,10.9-10.7,15.8c-4.7,4.9-9.9,9.7-15.4,13.9
    c-6.2,4.1-13,8-19.9,11.1c-8,3.4-16.6,6.1-25.3,7.9c-10,2-20.3,3-30.7,3.1c-11-0.2-22-1.7-32.7-3.9c-9.2-2.2-17.9-5.4-25.8-10.1
    c-7-4.4-13.4-9.5-19.2-15.1c-5.1-5.5-9.6-11.6-13.4-18c-3.6-6.3-6.4-13-8.6-19.9c-2.1-7-3.3-14.3-3.7-21.6c-0.2-7.4,1-14.8,2.8-21.7
    c1.9-5.4,4.3-10.5,7.7-15.3c4.1-4.7,8.9-9.3,14.3-13.3c8-5.2,16.8-10,25.9-13.4c9.7-3.5,19.9-5.8,30.2-6.9c11.2-1,22.6-1,33.9,0.5
    c10.7,1.8,21.2,4.5,31.3,8.6c8,3.5,15.5,8.2,22.3,13.6c6,5.2,11.5,11.1,16.4,17.4c4.1,6,7.8,12.7,10.8,19.7c2.6,6.8,4.5,14,5.8,21.2
    c1,7.5,0.9,15,0.2,22.5c-0.9,7.5-3.3,14.6-6.3,21.3c-3,5.5-6.9,10.6-11.4,15.3c-5,4.8-10.4,9.4-16.1,13.4c-6.5,3.9-13.4,7.6-20.6,10.4
    c-8.3,3.2-17,5.8-25.9,7.3c-10.2,1.7-20.7,2.5-31.3,2.4c-11.2-0.5-22.2-2.3-33-4.8c-9.1-2.5-17.7-5.9-25.3-10.9c-6.8-4.8-12.9-10.2-18.4-16.1
    c-4.8-5.8-9-12.2-12.5-18.9c-3.3-6.6-5.8-13.6-7.6-20.6c-1.8-7.3-2.8-14.8-2.9-22.3c-0.1-7.6,1.5-14.9,3.5-21.8c2.1-5.3,4.8-10.2,8.3-14.9
    c4.3-4.5,9.3-8.9,14.9-12.7c8.2-4.9,17.4-9.3,26.8-12.4c10-3.2,20.4-5.3,31-6.1c11.4-0.7,22.9-0.5,34.3,1.3c10.7,2.2,21,5.2,30.9,9.5
    c7.9,3.8,15.1,8.7,21.6,14.6c5.8,5.5,11,11.8,15.5,18.5c3.9,6.3,7.2,13.2,9.9,20.4c2.3,7,3.9,14.5,4.9,21.9c0.8,7.6,0.4,15.2-0.6,22.7
    c-1.2,7.4-3.8,14.5-7.1,21.2c-3.3,5.3-7.4,10.2-12.2,14.7c-5.3,4.6-11,9-16.9,12.8c-6.7,3.8-13.9,7.1-21.3,9.6c-8.5,2.9-17.5,5.3-26.6,6.6
    c-10.5,1.4-21.1,1.9-31.8,1.5c-11.3-0.8-22.5-3-33.3-6c-9.1-2.9-17.5-6.6-24.9-11.8c-6.5-5.1-12.3-10.9-17.4-17.1c-4.5-6.1-8.4-12.8-11.5-19.8
    c-2.9-6.9-5-14.2-6.5-21.5c-1.5-7.5-2.2-15.2-1.9-22.9c0.1-7.7,2-15.1,4.3-21.9c2.4-5.2,5.3-10,9-14.4c4.6-4.3,9.9-8.5,15.6-12.1
    c8.6-4.6,18-8.6,27.7-11.4c10.2-2.9,20.9-4.8,31.6-5.3c11.6-0.4,23.2,0.1,34.6,2.1c10.7,2.6,20.9,5.9,30.5,10.6c7.7,4.2,14.6,9.3,20.9,15.6
    c5.5,5.8,10.3,12.4,14.5,19.4c3.6,6.6,6.6,13.8,8.8,21.2c2,7.3,3.3,15,4,22.7c0.6,7.8-0.1,15.6-1.5,22.9c-1.4,7.4-4.3,14.4-8,21
    c-3.5,5.2-7.9,10-12.9,14.2c-5.5,4.4-11.5,8.6-17.7,12.1c-6.9,3.6-14.4,6.6-22,8.8c-8.8,2.6-17.9,4.8-27.2,5.9c-10.7,1.1-21.4,1.3-32.2,0.6
    c-11.5-1.1-22.7-3.7-33.5-7.1c-9-3.2-17.2-7.3-24.4-12.8c-6.3-5.4-11.7-11.6-16.5-18.2c-4.2-6.4-7.7-13.5-10.5-20.7
    c-2.6-7.2-4.4-14.9-5.4-22.6c-1.1-7.8-1.4-15.7-0.8-23.3c0.4-7.8,2.5-15.1,5.2-22c2.6-5.1,5.9-9.8,9.8-14c5-4.1,10.4-8.1,16.4-11.4
    c8.8-4.3,18.5-8,28.5-10.4c10.6-2.5,21.4-4.2,32.3-4.5c11.9-0.1,23.5,0.8,35,3.1c10.7,3,20.7,6.6,30,11.7c7.6,4.5,14.1,10.1,20,16.7
    c5.2,6.1,9.7,13.1,13.4,20.5c3.2,6.9,5.8,14.4,7.6,22.2c1.6,7.6,2.5,15.6,2.9,23.4c0.3,8.1-0.6,15.9-2.4,23.1c-1.7,7.4-4.9,14.2-9,20.7
    c-3.8,5.1-8.5,9.8-13.8,13.8c-5.9,4.2-12.2,8.1-18.7,11.4c-7.2,3.3-14.9,6.1-22.7,8c-9.1,2.2-18.5,4.1-28,4.9c-11,0.8-21.9,0.7-32.8-0.5
    c-11.6-1.6-22.8-4.5-33.6-8.4c-8.9-3.6-16.9-8.1-23.9-13.8c-6-5.7-11-12.3-15.5-19.3c-3.8-6.8-6.9-14.1-9.2-21.8c-2.2-7.6-3.5-15.5-4.2-23.6
    c-0.7-8.1-0.7-16.1,0.4-23.8c1-7.8,3.2-15.2,6.2-22c3-5.1,6.6-9.7,10.8-13.6c5.2-3.9,11-7.7,17.1-10.8c9.2-4,19.2-7.3,29.5-9.3
    c10.8-2.1,21.9-3.6,33-3.5c12.1,0.2,23.9,1.6,35.3,4.1c10.6,3.4,20.4,7.4,29.4,12.9c7.3,4.9,13.4,10.9,19,17.9c4.8,6.5,9,13.8,12.2,21.6
    c2.9,7.3,5,15.1,6.3,23.3c1.2,8,1.7,16.2,1.7,24.2c0.1,8.3-1.2,16.3-3.3,23.4c-2,7.4-5.5,14.1-9.9,20.4c-4.1,5-9.1,9.5-14.6,13.3
    c-6.2,4.1-12.9,7.7-19.7,10.7c-7.5,3-15.4,5.5-23.5,7.2c-9.4,1.9-19,3.5-28.7,4.1c-11.3,0.5-22.4,0.1-33.4-1.6c-11.7-1.9-22.9-5.2-33.6-9.7
    c-8.9-4-16.6-8.9-23.4-14.8c-5.8-6-10.5-13-14.5-20.4c-3.5-7-6.3-14.8-8.1-22.7c-1.8-7.8-2.8-16.1-3-24.3c-0.4-8.4,0.1-16.6,1.6-24.2
    c1.3-7.9,3.8-15.2,7.2-22c3.2-5,7.2-9.5,11.6-13.3c5.6-3.7,11.7-7.3,18.1-10.1c9.6-3.7,19.7-6.6,30-8.2c11.1-1.8,22.5-2.8,33.7-2.4
    c12.4,0.5,24.2,2.4,35.6,5.3c10.6,3.8,20.2,8.2,28.9,14c7.1,5.2,13,11.7,18.1,19.1c4.5,6.8,8.2,14.5,11.1,22.7c2.6,7.6,4.3,15.8,5.2,24.2
    c0.8,8.3,0.9,16.8,0.4,24.9c-0.2,8.5-1.9,16.7-4.4,23.7c-2.3,7.3-6.1,13.9-10.9,20.1c-4.4,4.8-9.6,9.1-15.4,12.8
    c-6.5,3.9-13.5,7.2-20.6,9.9c-7.8,2.8-16,5-24.3,6.4c-9.7,1.6-19.6,2.8-29.4,3.1c-11.6,0.2-23-0.6-34.1-2.8c-11.7-2.2-22.8-6-33.5-11
    c-8.7-4.3-16.2-9.6-22.8-15.8c-5.5-6.4-9.9-13.7-13.4-21.5c-3.2-7.4-5.5-15.5-6.8-23.8c-1.4-8.2-2-16.7-1.8-25c0-8.6,0.8-17,2.8-24.7
    c1.6-8,4.4-15.3,8.1-22.1c3.5-5,7.9-9.4,12.6-13c6-3.6,12.4-7,19-9.5c10-3.5,20.5-6.1,31.1-7.3c11.5-1.4,23-2,34.5-1.2
    c12.6,0.8,24.5,3.1,35.8,6.5c10.4,4.1,19.9,8.9,28.4,15.1c6.8,5.6,12.4,12.3,17.1,20c4.1,7.1,7.4,15.1,9.8,23.6c2.2,8,3.5,16.5,4,25.1
    c0.5,8.6,0.1,17.3-0.8,25.5c-0.6,8.7-2.6,17-5.4,24.1c-2.7,7.3-6.7,13.7-11.7,19.6c-4.7,4.7-10.1,8.8-16.2,12.3c-6.7,3.6-14.1,6.7-21.6,9
    c-8,2.4-16.5,4.4-25.1,5.5c-9.9,1.3-20.1,2.1-30.2,2.1c-11.9-0.1-23.5-1.2-34.7-3.8c-11.7-2.6-22.8-6.7-33.3-12.2c-8.6-4.7-15.9-10.4-22.2-16.9
    c-5.2-6.6-9.3-14.2-12.5-22.5c-2.8-7.6-4.7-16.1-5.6-24.8c-1-8.5-1.3-17.3-0.7-25.7c0.3-8.8,1.6-17.4,4-25c2-8,5.1-15.3,9.1-22.1
    c3.8-4.9,8.4-9.3,13.5-12.8c6.3-3.5,13-6.6,19.9-8.9c10.4-3.2,21.2-5.5,32-6.4c11.8-1.1,23.5-1.3,35.1-0.1c12.7,1.2,24.6,4,35.8,7.8
    c10.2,4.5,19.5,9.7,27.7,16.2c6.6,6,11.9,13,16.3,21.1c3.7,7.4,6.6,15.7,8.6,24.5c1.9,8.3,2.9,17.1,3.1,26c0.1,8.9-0.7,17.8-2.1,26.2
    c-0.9,8.8-3.2,17.3-6.5,24.3c-3.1,7.3-7.4,13.6-12.6,19.2c-5.1,4.6-10.8,8.6-17,11.8c-7,3.5-14.7,6.3-22.5,8.4c-8.4,2.2-17.1,3.8-25.9,4.7
    c-10.3,1-20.7,1.4-31.2,1c-12.1-0.4-24-2-35.3-5.1c-11.6-2.9-22.6-7.4-33-13.4c-8.4-5.2-15.6-11.3-21.7-18c-5-7-8.9-14.9-11.7-23.5
    c-2.5-7.9-4.2-16.7-4.8-25.8c-0.6-8.8-0.5-17.9,0.5-26.6c0.6-9,2.4-17.7,5.2-25.3c2.5-8,6.1-15.3,10.4-22.1c4.3-4.8,9.3-9.1,14.7-12.5
    c6.8-3.4,14-6.3,21.3-8.4c11.1-3,22.5-5,33.8-5.7c12.4-0.7,24.7-0.4,36.7,1.4c13.1,1.5,25.2,4.8,36.5,9.1c10.2,5,19.3,10.7,27.3,17.6
    c6.4,6.5,11.6,13.9,15.8,22.3c3.5,8,6.2,16.8,8,25.9c1.6,8.8,2.5,18,2.5,27.2c-0.1,9.4-1.3,18.6-3.3,27.3c-1.4,9.1-4,17.8-7.8,24.9
    c-3.6,7.3-8.2,13.4-13.7,18.8c-5.4,4.5-11.4,8.4-18,11.5c-7.4,3.3-15.5,5.8-23.7,7.7c-8.8,1.9-17.9,3.3-27,3.9c-10.8,0.7-21.7,0.8-32.6,0
    c-12.5-0.9-24.8-3-36.4-6.6c-11.8-3.3-22.8-8.3-33.2-14.7c-8.4-5.6-15.5-12.3-21.5-19.4c-4.9-7.4-8.7-15.6-11.3-24.6
    c-2.2-8.3-3.6-17.4-4-26.8c-0.3-9.1,0.2-18.5,1.8-27.4c1-9.3,3.2-18.2,6.6-26c3.1-8,7.3-15.3,12.1-22c4.8-4.7,10.3-8.8,16.2-12.2
    c7.4-3.3,15.2-6,23.1-7.9c11.9-2.8,24-4.5,36.1-5c13.2-0.4,26.3,0.4,39,2.8c13.8,2.1,26.6,5.8,38.3,10.6c10.5,5.5,19.7,11.8,27.8,19.3
    c6.4,7,11.5,15,15.5,23.8c3.4,8.5,5.9,17.8,7.5,27.4c1.4,9.3,2.1,19,2.1,28.7c-0.2,9.9-1.7,19.6-4.3,28.7c-1.7,9.6-4.6,18.7-8.6,26.1
    c-4,7.5-8.9,13.8-14.8,19.2c-5.7,4.6-12,8.6-18.8,11.7c-7.8,3.4-16.2,5.9-24.8,7.9c-9.2,1.9-18.6,3.2-28,3.7c-11.3,0.6-22.6,0.5-33.8-0.5
    c-13-1.2-25.6-3.7-37.6-7.9c-12.1-3.8-23.4-9.1-33.9-16.2c-8.5-6.1-15.7-13.5-21.8-21.3c-5-8.1-8.8-17-11.3-26.7c-2.2-9.1-3.4-18.9-3.7-29.1
    c-0.2-9.9,0.6-20,2.6-29.6c1.4-10,4.1-19.5,8-27.9c3.6-8.6,8.4-16.4,13.7-23.6c5.4-5.1,11.5-9.5,17.9-13.1c8.2-3.6,16.8-6.4,25.4-8.5
    c13-3.1,26.2-4.9,39.3-5.6c14.3-0.6,28.4,0.3,42.3,3.1c14.9,2.5,28.7,6.6,41.2,12.1c11.3,6,21,12.8,29.7,20.8c6.8,7.6,12.3,16.3,16.6,25.8
    c3.6,9.1,6.2,19.1,7.8,29.3c1.5,10,2.1,20.4,2,30.9c-0.3,10.6-2.1,21-4.9,30.7c-2,10.3-5.1,20-9.5,27.9c-4.3,8-9.6,14.7-15.8,20.5
    c-6,4.9-12.7,9.1-19.9,12.4c-8.3,3.6-17.2,6.3-26.3,8.4c-9.6,2.1-19.6,3.5-29.5,4.2c-11.8,0.7-23.6,0.6-35.3-0.6c-13.6-1.4-26.8-4.2-39.3-8.7
    c-12.7-4.2-24.4-10.1-35.2-17.9c-8.9-6.7-16.3-14.7-22.6-23.3c-5.1-8.8-9-18.6-11.7-29.1c-2.4-9.8-3.7-20.4-4-31.3
    c-0.3-10.7,0.4-21.6,2.6-32.1c1.5-10.8,4.5-21.2,8.6-30.3c3.8-9.3,8.9-17.7,14.6-25.4c5.8-5.5,12.3-10.3,19.2-14.2
    c8.7-4,17.9-7,27.2-9.3c13.9-3.4,27.9-5.4,41.9-6.3c15.1-0.8,30,0.1,44.6,3.2c15.7,2.8,30.1,7.3,43.2,13.2c11.7,6.5,22,13.9,31.1,22.5
    c7.1,8.3,12.9,17.7,17.3,28c3.8,9.7,6.5,20.4,8.2,31.3c1.6,10.6,2.3,21.7,2.2,32.8c-0.2,11.2-2.2,22.2-5.4,32.5c-2.1,10.9-5.4,21.2-10,29.6
    c-4.6,8.4-10.1,15.6-16.7,21.7c-6.4,5.1-13.5,9.6-21,13.1c-8.7,3.8-18.1,6.6-27.7,8.8c-10.1,2.2-20.7,3.7-31.1,4.4
    c-12.5,0.8-25,0.7-37.3-0.5c-14.3-1.5-28.3-4.3-41.4-9.1c-13.3-4.5-25.6-10.8-36.7-19c-9.3-7.1-17-15.6-23.5-24.7
    c-5.4-9.3-9.5-19.7-12.2-30.8c-2.5-10.3-3.9-21.4-4.3-32.8c-0.3-11.2,0.3-22.7,2.5-33.6c1.5-11.3,4.6-22.1,8.9-31.5
    c4-9.6,9.4-18.4,15.5-26.3c6.1-5.7,13-10.7,20.3-14.8c9.2-4.2,18.9-7.3,28.7-9.7c14.6-3.6,29.3-5.7,43.9-6.7c15.7-0.9,31.4-0.1,46.6,3
    c16.3,3,31.2,7.7,44.7,14c12.2,6.8,22.8,14.6,32.2,23.6c7.3,8.6,13.3,18.4,17.8,29.2c4,10.1,6.8,21.2,8.5,32.5c1.7,11,2.5,22.5,2.4,33.9
    c-0.1,11.5-2.2,23.1-5.7,33.8c-2.1,11.3-5.6,22-10.3,30.6c-4.7,8.7-10.5,16.2-17.3,22.5c-6.6,5.4-14,10-21.9,13.6c-9,4-18.8,7-28.7,9.2
    c-10.5,2.3-21.6,3.9-32.4,4.7c-12.9,0.9-25.9,0.9-38.7-0.4c-14.7-1.5-29.2-4.3-42.7-9.3c-13.7-4.7-26.3-11.2-37.8-19.7
    c-9.5-7.4-17.4-16.1-24-25.6c-5.6-9.7-9.7-20.5-12.6-32c-2.6-10.7-4-22.3-4.5-34c-0.3-11.5,0.3-23.4,2.4-34.7c1.4-11.5,4.6-22.7,8.9-32.5
    c4.1-9.9,9.7-19,16.1-27c6.3-5.9,13.5-11,21.2-15.3c9.6-4.4,19.6-7.6,29.9-10.1c15.2-3.7,30.5-6,45.7-7.1c16.1-1,32.3-0.3,47.9,2.9
    c16.7,3.1,31.9,7.9,45.7,14.4c12.4,7.1,23.3,15.2,33,24.5c7.4,8.8,13.6,18.9,18.1,29.9c4.1,10.3,6.9,21.6,8.7,33.1c1.7,11.1,2.5,22.9,2.5,34.5
    c-0.1,11.8-2.1,23.5-5.9,34.5c-2.1,11.5-5.7,22.3-10.6,31c-4.8,8.8-10.8,16.4-17.8,22.7c-6.8,5.6-14.4,10.3-22.5,14c-9.2,4.1-19.3,7.2-29.5,9.6
    c-10.7,2.4-22.1,4.1-33.2,4.9c-13.1,1.1-26.5,1.2-39.5-0.2c-15-1.4-29.7-4.1-43.4-9.1c-13.8-4.8-26.7-11.5-38.4-20.2
    c-9.6-7.6-17.6-16.5-24.2-26.3c-5.8-10-10-21-12.9-32.9c-2.6-11-4.1-22.8-4.6-34.7c-0.2-11.6,0.2-23.7,2.2-35.2c1.4-11.8,4.6-23.1,8.9-33
    c4.2-10.1,9.9-19.3,16.5-27.4c6.5-6,13.9-11.2,21.7-15.6c9.7-4.5,20-7.8,30.6-10.4c15.4-3.8,31.2-6.2,46.8-7.4c16.5-1.1,32.8-0.4,48.7,2.7
    c16.9,3.2,32.4,8,46.2,14.7c12.7,7.3,23.7,15.6,33.6,25.1c7.5,9,13.9,19.3,18.5,30.4c4.3,10.5,7.2,21.9,8.9,33.6c1.8,11.4,2.7,23.2,2.7,34.9
    c0,11.9-2,23.9-5.9,35.1c-2.1,11.6-5.8,22.5-10.7,31.3c-4.8,9-11,16.7-18.3,23c-6.9,5.7-14.8,10.4-23.1,14.2c-9.5,4.3-19.9,7.5-30.2,10
    c-11,2.5-22.5,4.3-33.9,5.1c-13.5,1.2-27,1.5-40.3,0c-15.2-1.3-30-3.9-43.7-8.9c-14-4.9-27-11.7-38.8-20.6c-9.7-7.9-17.7-17-24.5-26.9
    c-5.9-10.2-10.2-21.4-13.2-33.6c-2.7-11.2-4.2-23.2-4.8-35.2c-0.3-11.8,0-23.9,1.8-35.5c1.3-11.9,4.4-23.3,8.5-33.2c4.2-10.2,10.1-19.6,16.8-27.7
    c6.6-6.2,14.2-11.4,22.2-15.8c9.8-4.7,20.3-8,31.2-10.7c15.7-3.9,31.6-6.5,47.4-7.8c16.6-1.3,33-0.6,49.1,2.4c17.1,3.3,32.7,8,46.5,14.8
    c12.8,7.4,24,15.8,34,25.5c7.7,9.2,14,19.6,18.7,30.7c4.4,10.6,7.4,22.1,9.2,33.8c1.9,11.5,2.9,23.4,3,35.2c0.1,12-1.7,24-5.6,35.4
    c-2,11.8-5.6,22.7-10.6,31.5c-4.8,9.1-11.1,16.9-18.5,23.3c-7.1,5.9-15.1,10.7-23.6,14.4c-9.7,4.4-20.3,7.6-30.9,10.3
    c-11.2,2.6-22.8,4.6-34.5,5.6c-13.7,1.4-27.4,1.7-40.8,0.3c-15.3-1.1-30.2-3.7-43.9-8.6c-14.1-4.9-27-11.8-38.9-20.8
    c-9.9-8.1-17.9-17.3-24.6-27.5c-6.2-10.4-10.5-21.8-13.6-34.3c-2.8-11.4-4.5-23.4-5.2-35.5c-0.5-11.9-0.3-24,1.4-35.5c1.1-12,4.2-23.3,8-33.2
    c4.2-10.2,10.2-19.6,17.2-27.8c6.8-6.2,14.5-11.5,22.8-15.9c10-4.8,20.7-8.3,31.9-11c16-4.1,32-7,48-8.4c16.8-1.5,33.3-0.9,49.5,1.9
    c17.2,3.3,32.9,7.9,46.7,14.7c13.1,7.6,24.4,16,34.5,26c7.9,9.3,14.4,20,19.1,31.1c4.7,10.8,7.8,22.3,9.7,34.1c2.1,11.6,3.2,23.6,3.4,35.5
    c0.2,12.1-1.3,24.1-5.2,35.5c-1.9,11.9-5.4,22.9-10.3,31.6c-4.8,9.3-11.2,17.2-18.8,23.5c-7.2,6.1-15.5,10.9-24.1,14.8c-10,4.6-20.9,7.9-31.6,10.7
    c-11.7,2.8-23.5,4.9-35.5,5.9c-14.3,1.7-28.4,2.2-42.1,0.6c-15.9-1-31.2-3.4-45.3-8.3c-14.5-5.1-27.5-12-40-21.1c-10.3-8.4-18.5-17.8-25.4-28.4
    c-6.5-10.7-11-22.4-14.3-35.3c-3.1-11.8-4.9-24.1-5.8-36.4c-0.7-12-0.7-24.1,0.7-35.7c0.9-12.1,3.8-23.5,7.3-33.3c4.1-10.3,10.2-19.7,17.3-27.9
    c7.1-6.4,15.1-11.7,23.8-16.1c10.5-4.9,21.6-8.4,33.3-11.2c16.6-4.4,33.1-7.5,49.4-9.2c17.2-1.8,34.1-1.4,50.5,1.3c17.4,3.2,33.3,7.8,47.1,14.7
    c13.7,7.8,25.4,16.4,35.7,26.7c8.3,9.7,15.1,20.4,20,31.7c4.9,11,8.3,22.8,10.3,34.8c2.3,11.9,3.6,24.1,4,36c0.5,12.2-0.8,24.3-4.5,35.8 Let me double-check this. I may have added some erroneous points. Let me regenerate the path data to be more concise and accurate to the image.
    -->
    <path d="M19.9,43.2c27.7-12.2,56.9-24.6,88-30c16.4-2.8,33-2.7,49.4-0.8c6.5,0.8,12.9,2.2,19.1,4.5
	c5.7,2.1,10.9,5.6,16.6,8.7c7.4,4,15.1,8,23.5,9.9c8.4,1.9,17.2,0.6,25.6-1.6c9.6-2.6,19-6.5,27.6-11.7c6.3-3.8,12.5-7.9,19.1-11.5
	c3.8-2.1,7.7-4,11.8-5.4c3.1-1,6.4-1.8,9.7-1.7c2.4,0.1,4.7,0.7,6.9,1.8c1.8,0.9,3.4,2.3,4.6,3.9c1.1,1.5,1.7,3.3,2,5.2
	c0.3,2.5-0.1,5.1-1,7.5c-1.3,3.8-3.8,7.1-6.8,9.9c-7.1,6.8-16.3,11-26.2,13.7c-11.4,3.1-23.2,4.8-35.1,5c-4.1,0.1-8.3-0.3-12.3-1
	c-0.7-0.1-1.5-0.4-2.1-0.8c-0.2-0.1-0.4-0.3-0.6-0.5c0,0,0,0-0.1-0.1l0.2-0.2c1.7,2.6,3.4,5.2,5.3,7.7c2.3,3.1,5,6,8,8.6
	c2.1,1.8,4.4,3.5,6.9,4.7c2.6,1.3,5.6,2.1,8.6,2c2.5,0,4.9-0.6,7.2-1.7c2.3-1.1,4.3-2.8,5.9-4.8c2.1-2.6,3.1-5.9,3.5-9.2
	c0.2-1.7,0.1-3.4-0.2-5.1c-0.2-0.8-0.5-1.6-0.9-2.3c-0.5-0.9-1.3-1.6-2.2-2.2c-1.8-1.2-4.1-1.3-6.2-0.8c-2.1,0.5-4,1.7-5.7,3.1
	c-2.7,2.4-5,5.5-6.7,8.8c-0.8,1.6-1.5,3.3-2.1,5.1c-0.2,0.6-0.4,1.1-0.6,1.7c-0.3,1.4-0.6,2.9-1,4.3c-0.8,3.5-2.2,6.8-4,9.9
	c-3.4,5.6-8.1,10.5-13.6,14.2c-4.3,2.9-9.2,5.2-14.3,6.5c-3.4,0.8-7,1.2-10.6,0.9c-2.5-0.2-4.9-0.8-7.3-1.9c-3.9-1.8-7.1-5-9.6-8.5
	c-1.4-2-2.6-4.2-3.5-6.5c-0.6-1.4-1.1-2.9-1.5-4.4c-0.6-2.3-1.1-4.7-1.4-7c-0.4-2.8-0.7-5.6-0.8-8.4c-0.1-3.1-0.1-6.3-0.2-9.4
	c0-0.8,0-1.7,0-2.5c-0.1-1.5-0.3-3-0.6-4.4c-0.6-2.7-1.8-5.1-3.5-7.2c-0.9-1.1-2-2.1-3.2-2.9c-1.3-0.9-2.8-1.5-4.4-1.7
	c-2.2-0.3-4.5,0-6.6,1c-3,1.4-5.3,4.1-7,7c-1.7,2.8-2.9,6-3.6,9.3c-0.4,1.7-0.6,3.5-0.8,5.3c-0.3,3.8-0.2,7.6,0.1,11.4
	c0.3,3.1,1,6.1,2.2,8.8c1.9,4.3,4.8,8,8.3,11.1c5.1,4.5,11.4,7.7,18.1,9.3c3.9,0.9,7.9,1.3,11.9,1.2c4.2-0.1,8.3-0.7,12.3-1.9
	c3.4-1,6.6-2.6,9.6-4.5c4.5-3,8.3-6.8,11.5-11.2c2.1-3,3.9-6.2,5.4-9.6c1.5-3.4,2.8-7,3.7-10.7c0.5-2.1,0.9-4.2,1.2-6.4
	c0.3-2.4,0.4-4.9,0.4-7.3c-0.1-3.5-0.5-6.9-1.4-10.3c-0.6-2.5-1.6-4.9-3-7c-1.8-2.8-4.4-4.8-7.5-5.9c-2.6-0.9-5.5-1.1-8.3-0.6
	c-4.2,0.7-8.2,2.7-11.8,5.2c-5.3,3.8-10.1,8.3-14.2,13.5c-2.5,3.2-4.7,6.6-6.6,10.2c-2.3,4.2-4.3,8.6-6.1,13c-3.3,8.2-6.1,16.6-8.8,25.1
	c-3.7,11.4-7.7,22.6-13.1,33.2c-1.2,2.3-2.4,4.6-3.7,6.9c-2.3,3.9-5,7.5-8.2,10.7c-4.8,4.8-11,8.3-17.7,10.1c-6.2,1.7-12.7,2.3-19.1,2.3
	c-7.1,0-14.2-0.7-21.2-2c-7.5-1.4-14.9-3.6-22-6.6c-8.6-3.6-16.9-8.2-24.9-13.3c-7.8-5-15.4-10.3-22.9-15.7
	c-4.5-3.3-9-6.6-13.4-10c-3.2-2.5-6.3-5.1-9.4-7.7c-1.6-1.3-3.1-2.6-4.7-3.9c-3.5-2.9-7.1-5.8-10.7-8.6c-4.2-3.3-8.3-6.5-12.6-9.7
	c-5-3.7-10-7.3-15.2-10.7c-6.3-4.3-12.7-8.4-19.3-12.1c-3-1.7-5.9-3.3-9-4.8c-0.4-0.2-0.7-0.4-1.1-0.6c-0.9-0.5-1.8-0.9-2.7-1.4
	L19.9,43.2z M374.9,56.9c-1.9-1-4-1.6-6.1-1.7c-3-0.1-5.9,0.6-8.6,1.6c-3.5,1.3-6.9,3-10.2,4.8c-5.4,3.1-10.6,6.6-15.8,10
	c-7.2,4.6-14.8,8.8-22.6,12.2c-4.7,2-9.5,3.7-14.4,5.2c-4.5,1.4-9.1,2.4-13.7,3.1c-4.6,0.6-9.2,0.8-13.9,0.6c-4.6-0.2-9.1-1-13.4-2.4
	c-3.3-1-6.5-2.5-9.5-4.4c-2.6-1.7-4.8-3.9-6.6-6.5c-1.1-1.7-2-3.5-2.6-5.4c-0.8-2.3-1.1-4.8-1-7.2c0.1-3.1,0.7-6.1,1.6-9
	c0.6-1.8,1.2-3.5,1.9-5.2c1.5-3.5,3.4-6.9,5.5-10.1c3.5-5.3,7.6-10.2,12.2-14.7c3.9-3.9,8.2-7.4,12.8-10.6c4.6-3.1,9.5-5.8,14.6-8.1
	c5.3-2.3,10.9-4.1,16.6-5.3c5.9-1.3,11.9-2,18-2.1c6.1-0.1,12.2,0.4,18.2,1.6c5.3,1,10.4,2.9,15.2,5.3c4.3,2.2,8.3,4.9,12.1,8
	c3.3,2.8,6.2,6,8.7,9.4c2.3,3.1,4.1,6.6,5.3,10.3C378.6,49.8,377.4,53.5,374.9,56.9z"/>
</svg>